<?xml version="1.0" encoding="UTF-8" standalone="no"?>
<svg
   xmlns:dc="http://purl.org/dc/elements/1.1/"
   xmlns:cc="http://creativecommons.org/ns#"
   xmlns:rdf="http://www.w3.org/1999/02/22-rdf-syntax-ns#"
   xmlns:svg="http://www.w3.org/2000/svg"
   xmlns="http://www.w3.org/2000/svg"
   xmlns:sodipodi="http://sodipodi.sourceforge.net/DTD/sodipodi-0.dtd"
   xmlns:inkscape="http://www.inkscape.org/namespaces/inkscape"
   version="1.1"
   id="Capa_1"
   x="0px"
   y="0px"
   viewBox="0 0 60 60"
   style="enable-background:new 0 0 60 60;"
   xml:space="preserve"
   sodipodi:docname="research-svgrepo-com.svg"
   inkscape:version="1.0.2 (e86c870879, 2021-01-15)"
   inkscape:export-filename="/home/ehe/Dev/Georiviere/georiviere-admin/studies/static/images/study-96.png"
   inkscape:export-xdpi="153.60001"
   inkscape:export-ydpi="153.60001"><metadata
   id="metadata93"><rdf:RDF><cc:Work
       rdf:about=""><dc:format>image/svg+xml</dc:format><dc:type
         rdf:resource="http://purl.org/dc/dcmitype/StillImage" /></cc:Work></rdf:RDF></metadata><defs
   id="defs91" /><sodipodi:namedview
   pagecolor="#ffffff"
   bordercolor="#666666"
   borderopacity="1"
   objecttolerance="10"
   gridtolerance="10"
   guidetolerance="10"
   inkscape:pageopacity="0"
   inkscape:pageshadow="2"
   inkscape:window-width="1848"
   inkscape:window-height="1009"
   id="namedview89"
   showgrid="false"
   inkscape:zoom="13.05"
   inkscape:cx="30"
   inkscape:cy="30"
   inkscape:window-x="0"
   inkscape:window-y="0"
   inkscape:window-maximized="1"
   inkscape:current-layer="Capa_1" />
<g
   id="g56"
   transform="matrix(0.93333333,0,0,0.93333333,2.0000001,2.0000001)">
	<g
   id="g24">
		<g
   id="g22">
			<path
   d="m 53,12 c 0,-0.1 0,-0.2 -0.1,-0.3 v -0.1 c -0.1,-0.1 -0.1,-0.2 -0.2,-0.3 l -11,-11 C 41.6,0.2 41.5,0.2 41.4,0.1 H 41.3 C 41.2,0.1 41.1,0 41,0 V 0 H 8 C 7.4,0 7,0.4 7,1 v 58 c 0,0.6 0.4,1 1,1 h 5 6 5 9 19 c 0.6,0 1,-0.4 1,-1 z M 49.6,11 H 42 V 3.4 Z M 14,23 h 4 V 52 H 14 Z M 14.5,21 16,17.5 17.5,21 Z M 14,58 v -4 h 4 v 4 z m 11,0 v -6 h 4 v -2 h -4 v -6 h 4 v -2 h -4 v -7 h 4 v -2 h -4 v -6 h 4 v -2 h -4 v -5 h 7 v 38 z m 9,0 V 19 c 0,-0.6 -0.4,-1 -1,-1 h -9 c -0.6,0 -1,0.4 -1,1 V 58 H 20 V 53 22 c 0,-0.3 -0.1,-0.6 -0.3,-0.7 l -2.8,-6.6 c -0.1,-0.4 -0.5,-0.6 -0.9,-0.6 -0.4,0 -0.7,0.2 -0.9,0.6 l -2.8,6.6 C 12.1,21.5 12,21.7 12,22 v 31 5 H 9 V 2 h 31 v 10 c 0,0.6 0.4,1 1,1 h 10 v 45 z"
   id="path2" />
			<rect
   x="12"
   y="5"
   width="8"
   height="2"
   id="rect4" />
			<rect
   x="38"
   y="22"
   width="9"
   height="2"
   id="rect6" />
			<rect
   x="38"
   y="27"
   width="9"
   height="2"
   id="rect8" />
			<rect
   x="38"
   y="32"
   width="9"
   height="2"
   id="rect10" />
			<rect
   x="38"
   y="37"
   width="9"
   height="2"
   id="rect12" />
			<rect
   x="38"
   y="42"
   width="9"
   height="2"
   id="rect14" />
			<rect
   x="38"
   y="47"
   width="9"
   height="2"
   id="rect16" />
			<rect
   x="38"
   y="52"
   width="9"
   height="2"
   id="rect18" />
			<rect
   x="12"
   y="9"
   width="16"
   height="2"
   id="rect20" />
		</g>
	</g>
	<g
   id="g26">
	</g>
	<g
   id="g28">
	</g>
	<g
   id="g30">
	</g>
	<g
   id="g32">
	</g>
	<g
   id="g34">
	</g>
	<g
   id="g36">
	</g>
	<g
   id="g38">
	</g>
	<g
   id="g40">
	</g>
	<g
   id="g42">
	</g>
	<g
   id="g44">
	</g>
	<g
   id="g46">
	</g>
	<g
   id="g48">
	</g>
	<g
   id="g50">
	</g>
	<g
   id="g52">
	</g>
	<g
   id="g54">
	</g>
</g>
<g
   id="g58"
   transform="matrix(0.93333333,0,0,0.93333333,0.46666667,0)">
</g>
<g
   id="g60"
   transform="matrix(0.93333333,0,0,0.93333333,0.46666667,0)">
</g>
<g
   id="g62"
   transform="matrix(0.93333333,0,0,0.93333333,0.46666667,0)">
</g>
<g
   id="g64"
   transform="matrix(0.93333333,0,0,0.93333333,0.46666667,0)">
</g>
<g
   id="g66"
   transform="matrix(0.93333333,0,0,0.93333333,0.46666667,0)">
</g>
<g
   id="g68"
   transform="matrix(0.93333333,0,0,0.93333333,0.46666667,0)">
</g>
<g
   id="g70"
   transform="matrix(0.93333333,0,0,0.93333333,0.46666667,0)">
</g>
<g
   id="g72"
   transform="matrix(0.93333333,0,0,0.93333333,0.46666667,0)">
</g>
<g
   id="g74"
   transform="matrix(0.93333333,0,0,0.93333333,0.46666667,0)">
</g>
<g
   id="g76"
   transform="matrix(0.93333333,0,0,0.93333333,0.46666667,0)">
</g>
<g
   id="g78"
   transform="matrix(0.93333333,0,0,0.93333333,0.46666667,0)">
</g>
<g
   id="g80"
   transform="matrix(0.93333333,0,0,0.93333333,0.46666667,0)">
</g>
<g
   id="g82"
   transform="matrix(0.93333333,0,0,0.93333333,0.46666667,0)">
</g>
<g
   id="g84"
   transform="matrix(0.93333333,0,0,0.93333333,0.46666667,0)">
</g>
<g
   id="g86"
   transform="matrix(0.93333333,0,0,0.93333333,0.46666667,0)">
</g>
</svg>
