<?xml version="1.0" encoding="UTF-8" standalone="no"?>
<svg
   xmlns:dc="http://purl.org/dc/elements/1.1/"
   xmlns:cc="http://creativecommons.org/ns#"
   xmlns:rdf="http://www.w3.org/1999/02/22-rdf-syntax-ns#"
   xmlns:svg="http://www.w3.org/2000/svg"
   xmlns="http://www.w3.org/2000/svg"
   xmlns:sodipodi="http://sodipodi.sourceforge.net/DTD/sodipodi-0.dtd"
   xmlns:inkscape="http://www.inkscape.org/namespaces/inkscape"
   version="1.1"
   id="Layer_1"
   x="0px"
   y="0px"
   viewBox="0 0 512.107 512.107"
   style="enable-background:new 0 0 512.107 512.107;"
   xml:space="preserve"
   sodipodi:docname="description.svg"
   inkscape:version="1.0.2 (e86c870879, 2021-01-15)"
   inkscape:export-filename="/home/ehe/Téléchargements/description-16.png"
   inkscape:export-xdpi="3"
   inkscape:export-ydpi="3"><metadata
   id="metadata49"><rdf:RDF><cc:Work
       rdf:about=""><dc:format>image/svg+xml</dc:format><dc:type
         rdf:resource="http://purl.org/dc/dcmitype/StillImage" /><dc:title></dc:title></cc:Work></rdf:RDF></metadata><defs
   id="defs47">
	

		
	
			
			
			
		</defs><sodipodi:namedview
   pagecolor="#ffffff"
   bordercolor="#666666"
   borderopacity="1"
   objecttolerance="10"
   gridtolerance="10"
   guidetolerance="10"
   inkscape:pageopacity="0"
   inkscape:pageshadow="2"
   inkscape:window-width="1848"
   inkscape:window-height="1009"
   id="namedview45"
   showgrid="false"
   inkscape:zoom="0.76448868"
   inkscape:cx="54.148786"
   inkscape:cy="335.16483"
   inkscape:window-x="0"
   inkscape:window-y="0"
   inkscape:window-maximized="1"
   inkscape:current-layer="Layer_1" />

<g
   id="g14">
</g>
<g
   id="g16">
</g>
<g
   id="g18">
</g>
<g
   id="g20">
</g>
<g
   id="g22">
</g>
<g
   id="g24">
</g>
<g
   id="g26">
</g>
<g
   id="g28">
</g>
<g
   id="g30">
</g>
<g
   id="g32">
</g>
<g
   id="g34">
</g>
<g
   id="g36">
</g>
<g
   id="g38">
</g>
<g
   id="g40">
</g>
<g
   id="g42">
</g>
<g
   id="g1060"
   transform="translate(0.81392745,3.9933911)"><path
     style="color:#000000;font-style:normal;font-variant:normal;font-weight:normal;font-stretch:normal;font-size:medium;line-height:normal;font-family:sans-serif;font-variant-ligatures:normal;font-variant-position:normal;font-variant-caps:normal;font-variant-numeric:normal;font-variant-alternates:normal;font-variant-east-asian:normal;font-feature-settings:normal;font-variation-settings:normal;text-indent:0;text-align:start;text-decoration:none;text-decoration-line:none;text-decoration-style:solid;text-decoration-color:#000000;letter-spacing:normal;word-spacing:normal;text-transform:none;writing-mode:lr-tb;direction:ltr;text-orientation:mixed;dominant-baseline:auto;baseline-shift:baseline;text-anchor:start;white-space:normal;shape-padding:0;shape-margin:0;inline-size:0;clip-rule:nonzero;display:inline;overflow:visible;visibility:visible;opacity:1;isolation:auto;mix-blend-mode:normal;color-interpolation:sRGB;color-interpolation-filters:linearRGB;solid-color:#000000;solid-opacity:1;vector-effect:none;fill:#000000;fill-opacity:1;fill-rule:nonzero;stroke:none;stroke-width:0.970459;stroke-linecap:round;stroke-linejoin:round;stroke-miterlimit:4;stroke-dasharray:none;stroke-dashoffset:0;stroke-opacity:1;color-rendering:auto;image-rendering:auto;shape-rendering:auto;text-rendering:auto;enable-background:accumulate;stop-color:#000000;stop-opacity:1"
     d="m 459.58573,67.948675 c -5.21392,-0.21973 -17.15562,0.0342 -29.26256,5.58218 -10.10124,4.62887 -19.98428,14.59138 -33.09417,26.562585 -13.10987,11.9712 -28.26548,25.76916 -43.43654,36.67089 -27.86451,20.02311 -75.16977,22.83726 -139.6508,-13.61739 -33.29777,-18.82504 -51.76999,-28.438635 -74.68498,-28.129095 -22.91499,0.30954 -47.405698,9.785315 -95.819665,25.941035 a 9.4407239,9.9758247 0 0 0 -6.16044,12.51655 9.4407239,9.9758247 0 0 0 11.847002,6.50767 c 48.613054,-16.22216 72.536513,-24.77459 90.374653,-25.01556 17.83814,-0.24095 32.4571,7.07046 65.53558,25.77154 68.27147,38.59757 123.81104,37.93637 159.17762,12.52238 16.44448,-11.81679 32.05104,-26.0992 45.16244,-38.0718 13.11139,-11.97259 24.90883,-21.817285 28.26131,-23.353565 10.76488,-4.93299 22.48073,-3.8481 22.48073,-3.8481 a 9.4407239,9.9758247 0 0 0 10.38664,-8.86328 9.4407239,9.9758247 0 0 0 -8.3897,-10.97536 c 0,0 -0.98915,-0.12744 -2.72712,-0.20068 z"
     id="path965" /><g
     id="g1003"
     transform="translate(390.28235,63.597465)"><path
       d="m -169.89389,39.137346 c -16.534,1.066 -29.867,14.293 -31.147,30.719998 -1.493,19.52 13.867,35.839996 33.067,35.946996 0.107,0 0.107,0 0.213,0 18.453,0 33.493,-14.826996 33.493,-33.172996 0.107,-19.200998 -16,-34.773998 -35.626,-33.493998 z m 2.453,46.185998 c -0.107,0 -0.107,0 -0.213,0 -7.253,0 -13.227,-5.867 -13.333,-13.12 -0.107,-7.36 5.76,-13.439998 13.12,-13.546998 7.36,-0.107 13.44,5.759998 13.547,13.119998 0.106,7.361 -5.761,13.441 -13.121,13.547 z"
       id="path975" /><path
       d="m -167.44089,85.323344 c -0.107,0 -0.107,0 -0.213,0 -7.253,0 -13.227,-5.867 -13.33299,-13.12 -0.107,-7.359997 5.75999,-13.439995 13.11999,-13.546995 7.36,-0.107 13.44,5.759998 13.547,13.119995 0.106,7.361 -5.761,13.441 -13.121,13.547 z"
       id="path999"
       style="fill:#ffffff;fill-opacity:1" /></g><g
     id="g1009"
     transform="translate(560.92716,40.244108)"><path
       d="m -169.89389,39.137346 c -16.534,1.066 -29.867,14.293 -31.147,30.719998 -1.493,19.52 13.867,35.839996 33.067,35.946996 0.107,0 0.107,0 0.213,0 18.453,0 33.493,-14.826996 33.493,-33.172996 0.107,-19.200998 -16,-34.773998 -35.626,-33.493998 z m 2.453,46.185998 c -0.107,0 -0.107,0 -0.213,0 -7.253,0 -13.227,-5.867 -13.333,-13.12 -0.107,-7.36 5.76,-13.439998 13.12,-13.546998 7.36,-0.107 13.44,5.759998 13.547,13.119998 0.106,7.361 -5.761,13.441 -13.121,13.547 z"
       id="path1005" /><path
       d="m -167.44089,85.323344 c -0.107,0 -0.107,0 -0.213,0 -7.253,0 -13.227,-5.867 -13.33299,-13.12 -0.107,-7.359997 5.75999,-13.439995 13.11999,-13.546995 7.36,-0.107 13.44,5.759998 13.547,13.119995 0.106,7.361 -5.761,13.441 -13.121,13.547 z"
       id="path1007"
       style="fill:#ffffff;fill-opacity:1" /></g></g><g
   id="g1042"
   transform="translate(2.7606944,14.698054)"><path
     style="color:#000000;font-style:normal;font-variant:normal;font-weight:normal;font-stretch:normal;font-size:medium;line-height:normal;font-family:sans-serif;font-variant-ligatures:normal;font-variant-position:normal;font-variant-caps:normal;font-variant-numeric:normal;font-variant-alternates:normal;font-variant-east-asian:normal;font-feature-settings:normal;font-variation-settings:normal;text-indent:0;text-align:start;text-decoration:none;text-decoration-line:none;text-decoration-style:solid;text-decoration-color:#000000;letter-spacing:normal;word-spacing:normal;text-transform:none;writing-mode:lr-tb;direction:ltr;text-orientation:mixed;dominant-baseline:auto;baseline-shift:baseline;text-anchor:start;white-space:normal;shape-padding:0;shape-margin:0;inline-size:0;clip-rule:nonzero;display:inline;overflow:visible;visibility:visible;opacity:1;isolation:auto;mix-blend-mode:normal;color-interpolation:sRGB;color-interpolation-filters:linearRGB;solid-color:#000000;solid-opacity:1;vector-effect:none;fill:#000000;fill-opacity:1;fill-rule:nonzero;stroke:none;stroke-width:0.970459;stroke-linecap:round;stroke-linejoin:round;stroke-miterlimit:4;stroke-dasharray:none;stroke-dashoffset:0;stroke-opacity:1;color-rendering:auto;image-rendering:auto;shape-rendering:auto;text-rendering:auto;enable-background:accumulate;stop-color:#000000;stop-opacity:1"
     d="m 460.32406,322.25468 c -5.21392,-0.21973 -17.15562,0.0342 -29.26256,5.58218 -10.10124,4.62887 -19.98428,14.59138 -33.09417,26.56258 -13.10987,11.9712 -28.26548,25.76916 -43.43654,36.67089 -27.86451,20.02311 -75.16977,22.83726 -139.6508,-13.61739 -33.29777,-18.82504 -51.76999,-28.43863 -74.68498,-28.12909 -22.91499,0.30954 -47.405687,9.78531 -95.819654,25.94103 a 9.4407239,9.9758247 0 0 0 -6.16044,12.51655 9.4407239,9.9758247 0 0 0 11.847002,6.50767 c 48.613054,-16.22216 72.536502,-24.77459 90.374642,-25.01556 17.83814,-0.24095 32.4571,7.07046 65.53558,25.77154 68.27147,38.59757 123.81104,37.93637 159.17762,12.52238 16.44448,-11.81679 32.05104,-26.0992 45.16244,-38.0718 13.11139,-11.97259 24.90883,-21.81728 28.26131,-23.35356 10.76488,-4.93299 22.48073,-3.8481 22.48073,-3.8481 a 9.4407239,9.9758247 0 0 0 10.38664,-8.86328 9.4407239,9.9758247 0 0 0 -8.3897,-10.97536 c 0,0 -0.98915,-0.12744 -2.72712,-0.20068 z"
     id="path957" /><g
     id="g1021"
     transform="translate(574.6607,297.42642)"><path
       d="m -169.89389,39.137346 c -16.534,1.066 -29.867,14.293 -31.147,30.719998 -1.493,19.52 13.867,35.839996 33.067,35.946996 0.107,0 0.107,0 0.213,0 18.453,0 33.493,-14.826996 33.493,-33.172996 0.107,-19.200998 -16,-34.773998 -35.626,-33.493998 z m 2.453,46.185998 c -0.107,0 -0.107,0 -0.213,0 -7.253,0 -13.227,-5.867 -13.333,-13.12 -0.107,-7.36 5.76,-13.439998 13.12,-13.546998 7.36,-0.107 13.44,5.759998 13.547,13.119998 0.106,7.361 -5.761,13.441 -13.121,13.547 z"
       id="path1017" /><path
       d="m -167.44089,85.323344 c -0.107,0 -0.107,0 -0.213,0 -7.253,0 -13.227,-5.867 -13.33299,-13.12 -0.107,-7.359997 5.75999,-13.439995 13.11999,-13.546995 7.36,-0.107 13.44,5.759998 13.547,13.119995 0.106,7.361 -5.761,13.441 -13.121,13.547 z"
       id="path1019"
       style="fill:#ffffff;fill-opacity:1" /></g><g
     id="g1027"
     transform="translate(363.57811,310.15907)"><path
       d="m -169.89389,39.137346 c -16.534,1.066 -29.867,14.293 -31.147,30.719998 -1.493,19.52 13.867,35.839996 33.067,35.946996 0.107,0 0.107,0 0.213,0 18.453,0 33.493,-14.826996 33.493,-33.172996 0.107,-19.200998 -16,-34.773998 -35.626,-33.493998 z m 2.453,46.185998 c -0.107,0 -0.107,0 -0.213,0 -7.253,0 -13.227,-5.867 -13.333,-13.12 -0.107,-7.36 5.76,-13.439998 13.12,-13.546998 7.36,-0.107 13.44,5.759998 13.547,13.119998 0.106,7.361 -5.761,13.441 -13.121,13.547 z"
       id="path1023" /><path
       d="m -167.44089,85.323344 c -0.107,0 -0.107,0 -0.213,0 -7.253,0 -13.227,-5.867 -13.33299,-13.12 -0.107,-7.359997 5.75999,-13.439995 13.11999,-13.546995 7.36,-0.107 13.44,5.759998 13.547,13.119995 0.106,7.361 -5.761,13.441 -13.121,13.547 z"
       id="path1025"
       style="fill:#ffffff;fill-opacity:1" /></g></g><g
   id="g1051"
   transform="translate(2.7606944,33.900022)"><path
     style="color:#000000;font-style:normal;font-variant:normal;font-weight:normal;font-stretch:normal;font-size:medium;line-height:normal;font-family:sans-serif;font-variant-ligatures:normal;font-variant-position:normal;font-variant-caps:normal;font-variant-numeric:normal;font-variant-alternates:normal;font-variant-east-asian:normal;font-feature-settings:normal;font-variation-settings:normal;text-indent:0;text-align:start;text-decoration:none;text-decoration-line:none;text-decoration-style:solid;text-decoration-color:#000000;letter-spacing:normal;word-spacing:normal;text-transform:none;writing-mode:lr-tb;direction:ltr;text-orientation:mixed;dominant-baseline:auto;baseline-shift:baseline;text-anchor:start;white-space:normal;shape-padding:0;shape-margin:0;inline-size:0;clip-rule:nonzero;display:inline;overflow:visible;visibility:visible;opacity:1;isolation:auto;mix-blend-mode:normal;color-interpolation:sRGB;color-interpolation-filters:linearRGB;solid-color:#000000;solid-opacity:1;vector-effect:none;fill:#000000;fill-opacity:1;fill-rule:nonzero;stroke:none;stroke-width:0.970459;stroke-linecap:round;stroke-linejoin:round;stroke-miterlimit:4;stroke-dasharray:none;stroke-dashoffset:0;stroke-opacity:1;color-rendering:auto;image-rendering:auto;shape-rendering:auto;text-rendering:auto;enable-background:accumulate;stop-color:#000000;stop-opacity:1"
     d="m 459.5985,172.08793 c -5.21392,-0.21973 -17.15562,0.0342 -29.26256,5.58218 -10.10124,4.62887 -19.98428,14.59138 -33.09417,26.56258 -13.10987,11.9712 -28.26548,25.76916 -43.43654,36.67089 -27.86451,20.02311 -75.16977,22.83726 -139.6508,-13.61739 -33.29777,-18.82504 -51.76999,-28.43863 -74.68498,-28.12909 -22.91499,0.30954 -47.405694,9.78531 -95.819661,25.94103 a 9.4407239,9.9758247 0 0 0 -6.16044,12.51655 9.4407239,9.9758247 0 0 0 11.847002,6.50767 c 48.613054,-16.22216 72.536509,-24.77459 90.374649,-25.01556 17.83814,-0.24095 32.4571,7.07046 65.53558,25.77154 68.27147,38.59757 123.81104,37.93637 159.17762,12.52238 16.44448,-11.81679 32.05104,-26.0992 45.16244,-38.0718 13.11139,-11.97259 24.90883,-21.81728 28.26131,-23.35356 10.76488,-4.93299 22.48073,-3.8481 22.48073,-3.8481 a 9.4407239,9.9758247 0 0 0 10.38664,-8.86328 9.4407239,9.9758247 0 0 0 -8.3897,-10.97536 c 0,0 -0.98915,-0.12744 -2.72712,-0.20068 z"
     id="path963" /><g
     id="g1015"
     transform="translate(305.86637,140.59462)"><path
       d="m -169.89389,39.137346 c -16.534,1.066 -29.867,14.293 -31.147,30.719998 -1.493,19.52 13.867,35.839996 33.067,35.946996 0.107,0 0.107,0 0.213,0 18.453,0 33.493,-14.826996 33.493,-33.172996 0.107,-19.200998 -16,-34.773998 -35.626,-33.493998 z m 2.453,46.185998 c -0.107,0 -0.107,0 -0.213,0 -7.253,0 -13.227,-5.867 -13.333,-13.12 -0.107,-7.36 5.76,-13.439998 13.12,-13.546998 7.36,-0.107 13.44,5.759998 13.547,13.119998 0.106,7.361 -5.761,13.441 -13.121,13.547 z"
       id="path1011" /><path
       d="m -167.44089,85.323344 c -0.107,0 -0.107,0 -0.213,0 -7.253,0 -13.227,-5.867 -13.33299,-13.12 -0.107,-7.359997 5.75999,-13.439995 13.11999,-13.546995 7.36,-0.107 13.44,5.759998 13.547,13.119995 0.106,7.361 -5.761,13.441 -13.121,13.547 z"
       id="path1013"
       style="fill:#ffffff;fill-opacity:1" /></g><g
     id="g1033"
     transform="translate(477.76807,192.70926)"><path
       d="m -169.89389,39.137346 c -16.534,1.066 -29.867,14.293 -31.147,30.719998 -1.493,19.52 13.867,35.839996 33.067,35.946996 0.107,0 0.107,0 0.213,0 18.453,0 33.493,-14.826996 33.493,-33.172996 0.107,-19.200998 -16,-34.773998 -35.626,-33.493998 z m 2.453,46.185998 c -0.107,0 -0.107,0 -0.213,0 -7.253,0 -13.227,-5.867 -13.333,-13.12 -0.107,-7.36 5.76,-13.439998 13.12,-13.546998 7.36,-0.107 13.44,5.759998 13.547,13.119998 0.106,7.361 -5.761,13.441 -13.121,13.547 z"
       id="path1029" /><path
       d="m -167.44089,85.323344 c -0.107,0 -0.107,0 -0.213,0 -7.253,0 -13.227,-5.867 -13.33299,-13.12 -0.107,-7.359997 5.75999,-13.439995 13.11999,-13.546995 7.36,-0.107 13.44,5.759998 13.547,13.119995 0.106,7.361 -5.761,13.441 -13.121,13.547 z"
       id="path1031"
       style="fill:#ffffff;fill-opacity:1" /></g></g></svg>
