<?xml version="1.0" encoding="UTF-8" standalone="no"?>
<svg
   xmlns:dc="http://purl.org/dc/elements/1.1/"
   xmlns:cc="http://creativecommons.org/ns#"
   xmlns:rdf="http://www.w3.org/1999/02/22-rdf-syntax-ns#"
   xmlns:svg="http://www.w3.org/2000/svg"
   xmlns="http://www.w3.org/2000/svg"
   xmlns:sodipodi="http://sodipodi.sourceforge.net/DTD/sodipodi-0.dtd"
   xmlns:inkscape="http://www.inkscape.org/namespaces/inkscape"
   version="1.1"
   id="Capa_1"
   x="0px"
   y="0px"
   viewBox="0 0 60 60"
   style="enable-background:new 0 0 60 60;"
   xml:space="preserve"
   sodipodi:docname="administrativefile.svg"
   inkscape:version="0.92.5 (2060ec1f9f, 2020-04-08)"
   inkscape:export-filename="/home/ehe/Dev/Georiviere/Georiviere-admin/georiviere/finances_administration/static/images/administrativefile-96.png"
   inkscape:export-xdpi="153.60001"
   inkscape:export-ydpi="153.60001"><metadata
   id="metadata75"><rdf:RDF><cc:Work
       rdf:about=""><dc:format>image/svg+xml</dc:format><dc:type
         rdf:resource="http://purl.org/dc/dcmitype/StillImage" /><dc:title /></cc:Work></rdf:RDF></metadata><defs
   id="defs73" /><sodipodi:namedview
   pagecolor="#ffffff"
   bordercolor="#666666"
   borderopacity="1"
   objecttolerance="10"
   gridtolerance="10"
   guidetolerance="10"
   inkscape:pageopacity="0"
   inkscape:pageshadow="2"
   inkscape:window-width="1848"
   inkscape:window-height="1009"
   id="namedview71"
   showgrid="false"
   inkscape:zoom="4.6138718"
   inkscape:cx="-43.68673"
   inkscape:cy="15.398593"
   inkscape:window-x="72"
   inkscape:window-y="34"
   inkscape:window-maximized="1"
   inkscape:current-layer="Capa_1" />
<g
   id="g38"
   transform="matrix(0.90566038,0,0,0.90566038,0.8301886,2.8301886)"
   style="fill:#59359a;fill-opacity:1">
	<g
   id="g36"
   style="fill:#59359a;fill-opacity:1">
		<path
   d="M 56.5,49 V 49 1 c 0,-0.6 -0.4,-1 -1,-1 h -45 c -0.6,0 -1,0.4 -1,1 v 14 h 2 V 2 h 43 v 46 h -9 c -0.6,0 -1,0.4 -1,1 v 9 h -33 V 43 h -2 v 16 c 0,0.6 0.4,1 1,1 h 35 c 0.3,0 0.5,-0.1 0.7,-0.3 l 10,-10 c 0.1,-0.1 0.1,-0.2 0.2,-0.3 v -0.1 c 0.1,-0.1 0.1,-0.2 0.1,-0.3 z m -10,1 h 6.6 l -3.3,3.3 -3.3,3.3 z"
   id="path2"
   style="fill:#59359a;fill-opacity:1" />
		<path
   d="m 16.5,38 h 6 4 v -2 h -3 V 17 c 0,-0.6 -0.4,-1 -1,-1 h -6 c -0.6,0 -1,0.4 -1,1 v 6 h -5 c -0.6,0 -1,0.4 -1,1 v 4 h -5 c -0.6,0 -1,0.4 -1,1 v 8 c 0,0.6 0.4,1 1,1 h 6 z m 1,-20 h 4 v 18 h -4 V 24 Z m -6,7 h 4 v 11 h -4 v -7 z m -6,5 h 4 v 6 h -4 z"
   id="path4"
   style="fill:#59359a;fill-opacity:1" />
		<path
   d="M 50.5,24 V 7 c 0,-0.6 -0.4,-1 -1,-1 h -21 c -0.6,0 -1,0.4 -1,1 v 17 c 0,0.6 0.4,1 1,1 h 21 c 0.6,0 1,-0.4 1,-1 z m -2,-12 h -12 V 8 h 12 z m -14,-4 v 4 h -5 c 0,-1.6 0,-4 0,-4 z m -5,6 h 5 v 9 h -5 c 0,0 0,-4.7 0,-9 z m 7,9 v -9 h 12 v 9 z"
   id="path6"
   style="fill:#59359a;fill-opacity:1" />
		<rect
   x="28.5"
   y="28"
   width="21"
   height="2"
   id="rect8"
   style="fill:#59359a;fill-opacity:1" />
		<rect
   x="28.5"
   y="33"
   width="21"
   height="2"
   id="rect10"
   style="fill:#59359a;fill-opacity:1" />
		<rect
   x="28.5"
   y="38"
   width="21"
   height="2"
   id="rect12"
   style="fill:#59359a;fill-opacity:1" />
		<rect
   x="14.5"
   y="6"
   width="6"
   height="2"
   id="rect14"
   style="fill:#59359a;fill-opacity:1" />
		<rect
   x="14.5"
   y="11"
   width="9"
   height="2"
   id="rect16"
   style="fill:#59359a;fill-opacity:1" />
		<rect
   x="14.5"
   y="43"
   width="7"
   height="2"
   id="rect18"
   style="fill:#59359a;fill-opacity:1" />
		<rect
   x="24.5"
   y="43"
   width="7"
   height="2"
   id="rect20"
   style="fill:#59359a;fill-opacity:1" />
		<rect
   x="34.5"
   y="43"
   width="7"
   height="2"
   id="rect22"
   style="fill:#59359a;fill-opacity:1" />
		<rect
   x="14.5"
   y="48"
   width="7"
   height="2"
   id="rect24"
   style="fill:#59359a;fill-opacity:1" />
		<rect
   x="24.5"
   y="48"
   width="7"
   height="2"
   id="rect26"
   style="fill:#59359a;fill-opacity:1" />
		<rect
   x="34.5"
   y="48"
   width="7"
   height="2"
   id="rect28"
   style="fill:#59359a;fill-opacity:1" />
		<rect
   x="14.5"
   y="53"
   width="7"
   height="2"
   id="rect30"
   style="fill:#59359a;fill-opacity:1" />
		<rect
   x="24.5"
   y="53"
   width="7"
   height="2"
   id="rect32"
   style="fill:#59359a;fill-opacity:1" />
		<rect
   x="34.5"
   y="53"
   width="7"
   height="2"
   id="rect34"
   style="fill:#59359a;fill-opacity:1" />
	</g>
</g>
<g
   id="g40">
</g>
<g
   id="g42">
</g>
<g
   id="g44">
</g>
<g
   id="g46">
</g>
<g
   id="g48">
</g>
<g
   id="g50">
</g>
<g
   id="g52">
</g>
<g
   id="g54">
</g>
<g
   id="g56">
</g>
<g
   id="g58">
</g>
<g
   id="g60">
</g>
<g
   id="g62">
</g>
<g
   id="g64">
</g>
<g
   id="g66">
</g>
<g
   id="g68">
</g>
</svg>