<?xml version="1.0" encoding="UTF-8" standalone="no"?>
<svg
   xmlns:dc="http://purl.org/dc/elements/1.1/"
   xmlns:cc="http://creativecommons.org/ns#"
   xmlns:rdf="http://www.w3.org/1999/02/22-rdf-syntax-ns#"
   xmlns:svg="http://www.w3.org/2000/svg"
   xmlns="http://www.w3.org/2000/svg"
   xml:space="preserve"
   style="enable-background:new 0 0 31.845 31.844;"
   viewBox="0 0 31.845 31.844"
   height="31.844px"
   width="31.845px"
   y="0px"
   x="0px"
   id="Capa_1"
   version="1.1"><metadata
   id="metadata41"><rdf:RDF><cc:Work
       rdf:about=""><dc:format>image/svg+xml</dc:format><dc:type
         rdf:resource="http://purl.org/dc/dcmitype/StillImage" /><dc:title></dc:title></cc:Work></rdf:RDF></metadata><defs
   id="defs39" />
<g
   transform="matrix(0.75364934,0,0,0.75364934,3.9225215,3.9221604)"
   id="g4">
	<path
   id="path2"
   d="m 31.841,15.38 c -0.032,-0.264 -0.247,-0.467 -0.51,-0.484 L 18.083,14.044 21.381,1.188 C 21.446,0.931 21.321,0.665 21.081,0.551 20.84,0.44 20.553,0.513 20.399,0.73 l -3.668,5.146 c -1.606,2.252 -2.604,4.881 -2.896,7.63 L 13.809,13.768 9.744,13.506 C 9.313,11.384 7.502,9.719 5.238,9.574 2.519,9.404 0.184,11.483 0.01,14.17 c -0.172,2.705 1.889,5.052 4.596,5.228 0.106,0.008 0.212,0.012 0.319,0.012 1.957,0 3.667,-1.158 4.455,-2.841 l 4.042,0.861 -0.435,4.106 c -1.991,0.24 -3.663,1.68 -4.17,3.664 -0.327,1.271 -0.138,2.598 0.532,3.729 0.67,1.13 1.74,1.936 3.012,2.26 0.402,0.104 0.815,0.156 1.226,0.156 2.247,0 4.205,-1.521 4.767,-3.701 0.562,-2.197 -0.457,-4.436 -2.346,-5.504 l 1.014,-3.943 0.258,0.053 c 2.707,0.576 5.512,0.443 8.152,-0.385 l 6.028,-1.894 c 0.251,-0.082 0.413,-0.33 0.381,-0.591 z M 7.629,14.66 c -0.094,1.483 -1.364,2.644 -2.882,2.532 -1.491,-0.096 -2.628,-1.388 -2.533,-2.88 0.094,-1.423 1.282,-2.539 2.708,-2.539 0.058,0 0.115,0.002 0.173,0.006 1.495,0.095 2.631,1.388 2.534,2.881 z m 8.584,12.435 c -0.363,1.422 -1.858,2.326 -3.301,1.953 -0.702,-0.18 -1.292,-0.621 -1.661,-1.246 -0.368,-0.623 -0.474,-1.354 -0.294,-2.055 0.308,-1.201 1.388,-2.041 2.625,-2.041 0.228,0 0.455,0.028 0.677,0.086 1.449,0.374 2.325,1.853 1.954,3.303 z M 15.909,16.852 c -0.651,0 -1.18,-0.528 -1.18,-1.185 0,-0.652 0.529,-1.183 1.18,-1.183 0.654,0 1.185,0.53 1.185,1.183 0,0.657 -0.531,1.185 -1.185,1.185 z" />
</g>
<g
   id="g6">
</g>
<g
   id="g8">
</g>
<g
   id="g10">
</g>
<g
   id="g12">
</g>
<g
   id="g14">
</g>
<g
   id="g16">
</g>
<g
   id="g18">
</g>
<g
   id="g20">
</g>
<g
   id="g22">
</g>
<g
   id="g24">
</g>
<g
   id="g26">
</g>
<g
   id="g28">
</g>
<g
   id="g30">
</g>
<g
   id="g32">
</g>
<g
   id="g34">
</g>
</svg>