<?xml version="1.0" encoding="UTF-8" standalone="no"?>
<svg
   xmlns:dc="http://purl.org/dc/elements/1.1/"
   xmlns:cc="http://creativecommons.org/ns#"
   xmlns:rdf="http://www.w3.org/1999/02/22-rdf-syntax-ns#"
   xmlns:svg="http://www.w3.org/2000/svg"
   xmlns="http://www.w3.org/2000/svg"
   xmlns:sodipodi="http://sodipodi.sourceforge.net/DTD/sodipodi-0.dtd"
   xmlns:inkscape="http://www.inkscape.org/namespaces/inkscape"
   version="1.1"
   id="Layer_1"
   x="0px"
   y="0px"
   viewBox="0 0 512 512"
   style="enable-background:new 0 0 512 512;"
   xml:space="preserve"
   sodipodi:docname="station.svg"
   inkscape:version="0.92.5 (2060ec1f9f, 2020-04-08)"
   inkscape:export-filename="/home/ehe/Dev/Georiviere/Georiviere-admin/georiviere/observations/static/images/station.png"
   inkscape:export-xdpi="9"
   inkscape:export-ydpi="9"><metadata
   id="metadata61"><rdf:RDF><cc:Work
       rdf:about=""><dc:format>image/svg+xml</dc:format><dc:type
         rdf:resource="http://purl.org/dc/dcmitype/StillImage" /></cc:Work></rdf:RDF></metadata><defs
   id="defs59" /><sodipodi:namedview
   pagecolor="#ffffff"
   bordercolor="#666666"
   borderopacity="1"
   objecttolerance="10"
   gridtolerance="10"
   guidetolerance="10"
   inkscape:pageopacity="0"
   inkscape:pageshadow="2"
   inkscape:window-width="1848"
   inkscape:window-height="1009"
   id="namedview57"
   showgrid="false"
   inkscape:zoom="1.5292969"
   inkscape:cx="73.563221"
   inkscape:cy="253.71137"
   inkscape:window-x="72"
   inkscape:window-y="34"
   inkscape:window-maximized="1"
   inkscape:current-layer="Layer_1" />
<g
   id="g6"
   transform="matrix(0.89844276,0,0,0.89844276,25.998653,25.998204)"
   style="fill:#ffc107;fill-opacity:1">
	<g
   id="g4"
   style="fill:#ffc107;fill-opacity:1">
		<path
   d="M 455.364,56.638 C 418.843,20.115 370.284,0.002 318.635,0.002 c -51.649,0 -100.209,20.113 -136.731,56.635 -36.523,36.521 -56.635,85.08 -56.635,136.731 0,43.388 14.199,84.59 40.389,118.312 l -23.264,23.264 -5.777,-5.777 c -3.191,-3.191 -8.364,-3.191 -11.554,0 L 8.749,445.479 C 3.107,451.12 0,458.643 0,466.662 c 0,8.019 3.107,15.542 8.749,21.182 l 15.406,15.406 c 5.641,5.642 13.164,8.749 21.182,8.749 8.018,0 15.542,-3.107 21.182,-8.749 L 182.832,386.937 c 3.191,-3.191 3.191,-8.364 0,-11.554 l -5.776,-5.776 23.263,-23.264 c 33.722,26.19 74.925,40.39 118.314,40.39 51.65,0 100.208,-20.114 136.731,-56.636 C 491.886,293.574 512,245.017 512,193.366 512,141.715 491.886,93.159 455.364,56.638 Z M 54.965,491.696 c -2.556,2.555 -5.974,3.962 -9.629,3.962 -3.655,0 -7.073,-1.407 -9.629,-3.962 L 20.301,476.29 c -5.309,-5.31 -5.309,-13.948 0,-19.258 l 87.428,-87.428 34.663,34.663 z m 98.982,-98.981 -34.663,-34.663 11.555,-11.555 34.663,34.663 z m 11.555,-34.661 -11.556,-11.556 22.307,-22.307 c 1.841,1.999 3.718,3.973 5.65,5.906 1.933,1.932 3.906,3.81 5.905,5.649 z m 278.308,-39.51 c -33.435,33.435 -77.891,51.85 -125.176,51.85 -47.285,0 -91.74,-18.414 -125.176,-51.85 -69.022,-69.022 -69.022,-181.33 0,-250.352 33.435,-33.435 77.891,-51.85 125.176,-51.85 47.285,0 91.741,18.413 125.176,51.85 69.022,69.022 69.022,181.329 0,250.352 z"
   id="path2"
   style="fill:#ffc107;fill-opacity:1" />
	</g>
</g>
<g
   id="g12"
   transform="matrix(0.89844276,0,0,0.89844276,25.998653,25.998204)"
   style="fill:#ffc107;fill-opacity:1">
	<g
   id="g10"
   style="fill:#ffc107;fill-opacity:1">
		<path
   d="m 389.885,122.116 c -19.032,-19.032 -44.336,-29.514 -71.251,-29.514 -26.914,0 -52.22,10.482 -71.251,29.514 -39.288,39.287 -39.288,103.215 0,142.502 19.032,19.032 44.337,29.514 71.251,29.514 26.915,0 52.22,-10.482 71.251,-29.514 19.032,-19.031 29.514,-44.335 29.514,-71.251 0,-26.916 -10.482,-52.22 -29.514,-71.251 z m -11.553,130.949 c -15.945,15.946 -37.147,24.727 -59.697,24.727 -22.55,0 -43.751,-8.782 -59.697,-24.727 -32.917,-32.917 -32.917,-86.477 0,-119.395 15.946,-15.946 37.147,-24.727 59.697,-24.727 22.55,0 43.751,8.782 59.697,24.727 15.946,15.945 24.727,37.147 24.727,59.697 0,22.55 -8.783,43.752 -24.727,59.698 z"
   id="path8"
   style="fill:#ffc107;fill-opacity:1" />
	</g>
</g>
<g
   id="g18"
   transform="matrix(0.89844276,0,0,0.89844276,25.998653,25.998204)"
   style="fill:#ffc107;fill-opacity:1">
	<g
   id="g16"
   style="fill:#ffc107;fill-opacity:1">
		<path
   d="m 318.631,149.791 c -24.027,0 -43.574,19.547 -43.574,43.574 0,24.027 19.547,43.574 43.574,43.574 24.027,0 43.574,-19.547 43.574,-43.574 0,-24.027 -19.547,-43.574 -43.574,-43.574 z m 0,70.808 c -15.017,0 -27.234,-12.217 -27.234,-27.234 0,-15.017 12.217,-27.234 27.234,-27.234 15.017,0 27.234,12.217 27.234,27.234 0,15.017 -12.217,27.234 -27.234,27.234 z"
   id="path14"
   style="fill:#ffc107;fill-opacity:1" />
	</g>
</g>
<g
   id="g24"
   transform="matrix(0.89844276,0,0,0.89844276,25.998653,25.998204)"
   style="fill:#ffc107;fill-opacity:1">
	<g
   id="g22"
   style="fill:#ffc107;fill-opacity:1">
		<path
   d="m 428.396,83.606 c -60.523,-60.523 -159.002,-60.523 -219.525,0 -60.523,60.523 -60.523,159.001 0,219.524 25.184,25.184 57.175,40.572 92.519,44.501 4.489,0.496 8.524,-2.733 9.023,-7.217 0.499,-4.484 -2.733,-8.524 -7.217,-9.023 -31.617,-3.515 -60.239,-17.282 -82.771,-39.815 -54.151,-54.151 -54.151,-142.263 0,-196.416 54.153,-54.151 142.264,-54.151 196.417,0 54.151,54.153 54.151,142.264 0,196.417 -22.532,22.532 -51.154,36.299 -82.77,39.813 -4.485,0.499 -7.716,4.538 -7.217,9.023 0.464,4.178 4.002,7.268 8.11,7.268 0.302,0 0.607,-0.016 0.913,-0.05 35.344,-3.929 67.336,-19.316 92.519,-44.5 60.522,-60.524 60.522,-159.002 -10e-4,-219.525 z"
   id="path20"
   style="fill:#ffc107;fill-opacity:1" />
	</g>
</g>
<g
   id="g26"
   transform="matrix(0.89844276,0,0,0.89844276,25.998653,25.998204)">
</g>
<g
   id="g28"
   transform="matrix(0.89844276,0,0,0.89844276,25.998653,25.998204)">
</g>
<g
   id="g30"
   transform="matrix(0.89844276,0,0,0.89844276,25.998653,25.998204)">
</g>
<g
   id="g32"
   transform="matrix(0.89844276,0,0,0.89844276,25.998653,25.998204)">
</g>
<g
   id="g34"
   transform="matrix(0.89844276,0,0,0.89844276,25.998653,25.998204)">
</g>
<g
   id="g36"
   transform="matrix(0.89844276,0,0,0.89844276,25.998653,25.998204)">
</g>
<g
   id="g38"
   transform="matrix(0.89844276,0,0,0.89844276,25.998653,25.998204)">
</g>
<g
   id="g40"
   transform="matrix(0.89844276,0,0,0.89844276,25.998653,25.998204)">
</g>
<g
   id="g42"
   transform="matrix(0.89844276,0,0,0.89844276,25.998653,25.998204)">
</g>
<g
   id="g44"
   transform="matrix(0.89844276,0,0,0.89844276,25.998653,25.998204)">
</g>
<g
   id="g46"
   transform="matrix(0.89844276,0,0,0.89844276,25.998653,25.998204)">
</g>
<g
   id="g48"
   transform="matrix(0.89844276,0,0,0.89844276,25.998653,25.998204)">
</g>
<g
   id="g50"
   transform="matrix(0.89844276,0,0,0.89844276,25.998653,25.998204)">
</g>
<g
   id="g52"
   transform="matrix(0.89844276,0,0,0.89844276,25.998653,25.998204)">
</g>
<g
   id="g54"
   transform="matrix(0.89844276,0,0,0.89844276,25.998653,25.998204)">
</g>
</svg>