<?xml version="1.0" encoding="utf-8"?>
<!-- Generator: Adobe Illustrator 27.5.0, SVG Export Plug-In . SVG Version: 6.00 Build 0)  -->
<svg version="1.1"
	 id="svg16" xmlns:inkscape="http://www.inkscape.org/namespaces/inkscape" xmlns:svg="http://www.w3.org/2000/svg" xmlns:sodipodi="http://sodipodi.sourceforge.net/DTD/sodipodi-0.dtd" xmlns:cc="http://creativecommons.org/ns#" xmlns:dc="http://purl.org/dc/elements/1.1/" xmlns:rdf="http://www.w3.org/1999/02/22-rdf-syntax-ns#" inkscape:version="1.1.2 (b8e25be833, 2022-02-05)" sodipodi:docname="picto_poi_flore.svg"
	 xmlns="http://www.w3.org/2000/svg" xmlns:xlink="http://www.w3.org/1999/xlink" x="0px" y="0px" viewBox="0 0 56 56.01"
	 style="enable-background:new 0 0 56 56.01;" xml:space="preserve">
<style type="text/css">
	.st0{fill:#FFFFFF;}
</style>
<g>
	<path class="st0" d="M18.19,23.11h-4.78c-0.44,0-0.79,0.35-0.79,0.79v4.78c0,0.44,0.35,0.79,0.79,0.79h4.78
		c0.44,0,0.79-0.35,0.79-0.79V23.9C18.98,23.46,18.62,23.11,18.19,23.11L18.19,23.11z M17.39,27.88h-3.2v-3.2h3.2V27.88z"/>
	<path class="st0" d="M26.74,23.11h-4.78c-0.44,0-0.79,0.35-0.79,0.79v4.78c0,0.44,0.35,0.79,0.79,0.79h4.78
		c0.44,0,0.79-0.35,0.79-0.79V23.9C27.53,23.46,27.18,23.11,26.74,23.11L26.74,23.11z M25.95,27.88h-3.19v-3.2h3.19V27.88z"/>
	<path class="st0" d="M35.3,23.11h-4.78c-0.44,0-0.79,0.35-0.79,0.79v4.78c0,0.44,0.35,0.79,0.79,0.79h4.78
		c0.44,0,0.79-0.35,0.79-0.79V23.9C36.09,23.46,35.74,23.11,35.3,23.11L35.3,23.11z M34.51,27.88h-3.19v-3.2h3.19V27.88z"/>
	<path class="st0" d="M43.86,23.11h-4.78c-0.44,0-0.79,0.35-0.79,0.79v4.78c0,0.44,0.35,0.79,0.79,0.79h4.78
		c0.44,0,0.79-0.35,0.79-0.79V23.9C44.65,23.46,44.3,23.11,43.86,23.11L43.86,23.11z M43.07,27.88h-3.19v-3.2h3.19V27.88z"/>
	<path class="st0" d="M18.19,32.94h-4.78c-0.44,0-0.79,0.35-0.79,0.79v4.78c0,0.44,0.35,0.79,0.79,0.79h4.78
		c0.44,0,0.79-0.35,0.79-0.79v-4.78C18.98,33.3,18.62,32.94,18.19,32.94z M17.39,37.72h-3.2v-3.2h3.2V37.72z"/>
	<path class="st0" d="M26.74,32.94h-4.78c-0.44,0-0.79,0.35-0.79,0.79v4.78c0,0.44,0.35,0.79,0.79,0.79h4.78
		c0.44,0,0.79-0.35,0.79-0.79v-4.78C27.53,33.3,27.18,32.94,26.74,32.94z M25.95,37.72h-3.19v-3.2h3.19V37.72z"/>
	<path class="st0" d="M35.3,32.94h-4.78c-0.44,0-0.79,0.35-0.79,0.79v4.78c0,0.44,0.35,0.79,0.79,0.79h4.78
		c0.44,0,0.79-0.35,0.79-0.79v-4.78C36.09,33.3,35.74,32.94,35.3,32.94z M34.51,37.72h-3.19v-3.2h3.19V37.72z"/>
	<path class="st0" d="M43.86,32.94h-4.78c-0.44,0-0.79,0.35-0.79,0.79v4.78c0,0.44,0.35,0.79,0.79,0.79h4.78
		c0.44,0,0.79-0.35,0.79-0.79v-4.78C44.65,33.3,44.3,32.94,43.86,32.94z M43.07,37.72h-3.19v-3.2h3.19V37.72z"/>
	<path class="st0" d="M48.38,11.67h-3.73v-1.24c0-1.09-0.89-1.98-1.98-1.98c-1.09,0-1.98,0.89-1.98,1.98v1.24h-24.1v-1.24
		c0-1.09-0.89-1.98-1.99-1.98c-1.09,0-1.98,0.89-1.98,1.98v1.24H8.89c-0.44,0-0.79,0.35-0.79,0.79V43.7c0,0.44,0.35,0.79,0.79,0.79
		l39.49,0c0.44,0,0.79-0.35,0.79-0.79V12.47C49.17,12.03,48.82,11.67,48.38,11.67L48.38,11.67z M42.27,10.44
		c0-0.22,0.18-0.4,0.4-0.4c0.22,0,0.4,0.18,0.4,0.4v4.17c0,0.22-0.18,0.4-0.4,0.4c-0.22,0-0.4-0.18-0.4-0.4V10.44z M14.2,10.44
		c0-0.22,0.18-0.4,0.4-0.4c0.22,0,0.41,0.18,0.41,0.4v4.17c0,0.22-0.18,0.4-0.41,0.4c-0.22,0-0.4-0.18-0.4-0.4V10.44z M12.62,13.26
		v1.35c0,1.09,0.89,1.98,1.98,1.98c1.1,0,1.99-0.89,1.99-1.98v-1.35h24.1v1.35c0,1.09,0.89,1.98,1.98,1.98
		c1.1,0,1.98-0.89,1.98-1.98v-1.35h2.94v4.65H9.68v-4.65L12.62,13.26z M9.68,42.91V19.49h37.9v23.43H9.68z"/>
</g>
</svg>
