<?xml version="1.0" encoding="utf-8"?>
<!-- Generator: Adobe Illustrator 27.5.0, SVG Export Plug-In . SVG Version: 6.00 Build 0)  -->
<svg version="1.1"
	 id="svg16" xmlns:rdf="http://www.w3.org/1999/02/22-rdf-syntax-ns#" xmlns:dc="http://purl.org/dc/elements/1.1/" xmlns:cc="http://creativecommons.org/ns#" xmlns:sodipodi="http://sodipodi.sourceforge.net/DTD/sodipodi-0.dtd" xmlns:inkscape="http://www.inkscape.org/namespaces/inkscape" xmlns:svg="http://www.w3.org/2000/svg"
	 xmlns="http://www.w3.org/2000/svg" xmlns:xlink="http://www.w3.org/1999/xlink" x="0px" y="0px" viewBox="0 0 56 56"
	 style="enable-background:new 0 0 56 56;" xml:space="preserve">
<style type="text/css">
	.st0{fill:#FFFFFF;}
</style>
<g>
	<path class="st0" d="M32.6,11.1c-0.2,0-0.3,0-0.5,0.1c0-0.4-0.2-0.9-0.5-1.2c-0.3-0.3-0.7-0.6-1.1-0.7c-0.4-0.1-0.8-0.1-1.2,0
		c-0.2-0.5-0.6-0.9-1.2-1.1C27.6,8,27,8,26.5,8.2c-0.5,0.2-0.9,0.6-1.2,1.1c-0.2-0.1-0.4-0.1-0.7-0.1c-0.6,0-1.1,0.2-1.5,0.6
		c-0.4,0.4-0.6,1-0.6,1.5v8.4l-1.4-1.7v0c-0.5-0.6-1.3-0.9-2-0.7c-0.8,0.1-1.4,0.7-1.7,1.4c-0.3,0.7-0.1,1.5,0.4,2.1l5.2,7.2l0,0
		l0,0.1v0c-0.2,0.2-0.2,0.5-0.2,0.8v1.5c0,0.3,0.1,0.7,0.3,0.9c0.2,0.3,0.5,0.4,0.9,0.5v10.6c0,0.4,0.2,0.8,0.4,1
		c0.3,0.3,0.6,0.4,1,0.4h6.4c0.4,0,0.8-0.2,1-0.4c0.3-0.3,0.4-0.6,0.4-1V32c0.3-0.1,0.6-0.2,0.9-0.5c0.2-0.3,0.3-0.6,0.3-0.9V29
		c0-0.3-0.1-0.6-0.3-0.9c0.3-0.4,0.5-1,0.5-1.5V13.3c0-0.1,0-0.1,0-0.2c-0.1-0.5-0.3-1-0.7-1.4S33.1,11.1,32.6,11.1L32.6,11.1z
		 M24.9,30.3h-0.4v-1.1h8.4v1.1H24.9z M19.1,19.9L19.1,19.9c-0.1-0.2-0.2-0.3-0.2-0.4c0-0.1,0.1-0.2,0.2-0.3
		c0.2-0.2,0.5-0.1,0.7,0.1l2.9,3.3v0c0.2,0.3,0.6,0.4,0.9,0.2c0.3-0.1,0.5-0.4,0.5-0.8V11.4c0-0.2,0.2-0.4,0.5-0.4
		c0.3,0,0.5,0.2,0.5,0.4v6.7c0,0.5,0.4,0.8,0.8,0.8s0.8-0.4,0.8-0.8v-7.9c0-0.1,0-0.3,0.1-0.4c0.1-0.1,0.2-0.2,0.4-0.2
		c0.1,0,0.3,0.1,0.4,0.2c0.1,0.1,0.1,0.2,0.1,0.4v7.9c0,0.5,0.4,0.8,0.8,0.8c0.5,0,0.8-0.4,0.8-0.8v-6.7c0-0.3,0.2-0.5,0.5-0.5h0.1
		c0.2,0.1,0.4,0.2,0.4,0.5v8.5c0,0.5,0.4,0.8,0.8,0.8s0.8-0.4,0.8-0.8v-6.6c0-0.3,0.2-0.5,0.5-0.5c0.3,0,0.5,0.2,0.5,0.5v13.3
		c0,0.5-0.4,1-1,1h-7c-0.3,0-0.6-0.2-0.8-0.4l0-0.1L19.1,19.9z M25.7,42.4V32h6v10.4H25.7z"/>
	<path class="st0" d="M17.2,25.8c-0.6,0-1.1,0.3-1.5,0.8l-1.4,1.6v-8.4c0-0.6-0.2-1.1-0.6-1.5c-0.3-0.3-0.6-0.5-1-0.6
		c-0.4-0.1-0.8-0.1-1.2,0c-0.2-0.5-0.6-0.9-1.2-1.1c-0.5-0.2-1.1-0.2-1.6,0c-0.5,0.2-0.9,0.6-1.2,1.1c-0.4-0.2-0.9-0.2-1.3-0.1
		c-0.4,0.1-0.8,0.4-1.1,0.7c-0.3,0.3-0.5,0.8-0.5,1.2c-0.2,0-0.3-0.1-0.5-0.1c-0.5,0-1.1,0.2-1.5,0.6c-0.4,0.4-0.6,0.9-0.7,1.4
		c0,0.1,0,0.1,0,0.2V35c0,0.5,0.2,1.1,0.5,1.5c-0.2,0.3-0.3,0.6-0.3,0.9V39c0,0.3,0.1,0.7,0.3,0.9c0.2,0.3,0.5,0.4,0.9,0.5v2.2
		c0,0.4,0.2,0.8,0.4,1c0.3,0.3,0.6,0.4,1,0.4h6.5c0.4,0,0.8-0.2,1-0.4c0.3-0.3,0.4-0.6,0.4-1v-2.2c0.3-0.1,0.6-0.2,0.9-0.5
		S14,39.3,14,39v-1.5c0-0.3-0.1-0.6-0.2-0.8l0.1-0.1c0,0,0,0,0,0l5.2-7.2c0.4-0.4,0.5-1,0.5-1.6c-0.1-0.6-0.3-1.1-0.8-1.5
		C18.4,25.9,17.8,25.7,17.2,25.8L17.2,25.8z M3.9,38.8v-1.1h8.4v1.1H3.9z M5.1,42.4v-1.9h6v1.9H5.1z M17.8,28.3L17.8,28.3l-5.2,7.3
		l0,0.1C12.3,35.8,12,36,11.7,36h-7c-0.3,0-0.5-0.1-0.7-0.3c-0.2-0.2-0.3-0.4-0.3-0.7V21.7c0,0,0,0,0-0.1c0-0.2,0.2-0.4,0.5-0.4
		c0.3,0,0.5,0.2,0.5,0.5v6.6c0,0.5,0.4,0.8,0.8,0.8c0.5,0,0.8-0.4,0.8-0.8v-8.5c0-0.2,0.2-0.4,0.4-0.5h0.1c0.3,0,0.5,0.2,0.5,0.5
		v6.7c0,0.5,0.4,0.8,0.8,0.8c0.5,0,0.8-0.4,0.8-0.8v-7.9c0-0.1,0-0.3,0.1-0.4c0.1-0.1,0.2-0.2,0.4-0.2c0.1,0,0.3,0.1,0.4,0.2
		c0.1,0.1,0.1,0.2,0.1,0.4v7.9c0,0.5,0.4,0.8,0.8,0.8c0.5,0,0.8-0.4,0.8-0.8v-6.7c0-0.2,0.1-0.4,0.3-0.5c0.2-0.1,0.4,0,0.5,0.1
		c0.1,0.1,0.1,0.2,0.1,0.3v10.7c0,0.4,0.2,0.7,0.5,0.8c0.3,0.1,0.7,0,0.9-0.2l2.9-3.3c0.2-0.2,0.5-0.2,0.7-0.1
		C17.9,27.8,17.9,28,17.8,28.3L17.8,28.3z"/>
	<path class="st0" d="M48.2,30.9l5.2-7.2c0.4-0.4,0.5-1,0.5-1.6c-0.1-0.6-0.3-1.1-0.8-1.5c-0.4-0.4-1-0.6-1.6-0.5
		c-0.6,0-1.1,0.3-1.5,0.8l-1.4,1.7v-8.4c0-0.6-0.2-1.1-0.6-1.6c-0.3-0.3-0.6-0.5-1-0.6c-0.4-0.1-0.8-0.1-1.2,0
		c-0.2-0.5-0.6-0.9-1.2-1.1c-0.5-0.2-1.1-0.2-1.6,0c-0.5,0.2-0.9,0.6-1.2,1.1c-0.4-0.1-0.9-0.1-1.3,0c-0.4,0.1-0.8,0.4-1.1,0.7
		c-0.3,0.3-0.5,0.8-0.5,1.2c-0.2,0-0.3-0.1-0.5-0.1c-0.5,0-1.1,0.2-1.4,0.6c-0.4,0.4-0.6,0.9-0.7,1.4c0,0.1,0,0.1,0,0.2v13.3
		c0,0.5,0.2,1.1,0.5,1.5c-0.2,0.3-0.3,0.6-0.3,0.9v1.5c0,0.3,0.1,0.7,0.3,0.9c0.2,0.3,0.5,0.4,0.9,0.5v7.8c0,0.4,0.2,0.8,0.4,1
		c0.3,0.3,0.6,0.4,1,0.4h6.5c0.4,0,0.8-0.2,1-0.4c0.3-0.3,0.4-0.6,0.4-1v-7.8c0.3-0.1,0.6-0.2,0.9-0.5c0.2-0.3,0.3-0.6,0.3-0.9v-1.5
		c0-0.3-0.1-0.5-0.3-0.8L48.2,30.9L48.2,30.9z M38.3,33.2V32h8.4v1.1H38.3z M39.5,42.4l0-7.5h6v7.5L39.5,42.4z M46.9,29.9L46.9,29.9
		L46.9,29.9c-0.2,0.3-0.5,0.5-0.8,0.5h-7c-0.5,0-1-0.4-1-1V16.1V16c0-0.2,0.2-0.4,0.5-0.4c0.3,0,0.5,0.2,0.5,0.5v6.6
		c0,0.5,0.4,0.8,0.8,0.8s0.8-0.4,0.8-0.8v-8.5c0-0.2,0.2-0.4,0.4-0.5h0.1c0.3,0,0.5,0.2,0.5,0.5v6.7c0,0.5,0.4,0.8,0.8,0.8
		c0.5,0,0.8-0.4,0.8-0.8V13c0-0.1,0-0.3,0.1-0.4c0.1-0.1,0.2-0.2,0.4-0.2c0.1,0,0.3,0.1,0.4,0.2c0.1,0.1,0.1,0.2,0.1,0.4v7.9
		c0,0.5,0.4,0.8,0.8,0.8s0.8-0.4,0.8-0.8v-6.7c0-0.2,0.1-0.4,0.3-0.5c0.2-0.1,0.4,0,0.5,0.1c0.1,0.1,0.1,0.2,0.1,0.3v10.7
		c0,0.4,0.2,0.7,0.5,0.8c0.3,0.1,0.7,0,0.9-0.2l2.9-3.3h0c0.1-0.1,0.2-0.2,0.3-0.2c0.1,0,0.3,0,0.4,0.1c0.1,0.1,0.2,0.2,0.2,0.3
		c0,0.1,0,0.3-0.1,0.4l0,0.1L46.9,29.9z"/>
</g>
</svg>
