<?xml version="1.0" encoding="utf-8"?>
<!-- Generator: Adobe Illustrator 27.5.0, SVG Export Plug-In . SVG Version: 6.00 Build 0)  -->
<svg version="1.1"
	 id="svg16" xmlns:inkscape="http://www.inkscape.org/namespaces/inkscape" xmlns:svg="http://www.w3.org/2000/svg" xmlns:sodipodi="http://sodipodi.sourceforge.net/DTD/sodipodi-0.dtd" xmlns:cc="http://creativecommons.org/ns#" xmlns:dc="http://purl.org/dc/elements/1.1/" xmlns:rdf="http://www.w3.org/1999/02/22-rdf-syntax-ns#" inkscape:version="1.1.2 (b8e25be833, 2022-02-05)" sodipodi:docname="picto_poi_flore.svg"
	 xmlns="http://www.w3.org/2000/svg" xmlns:xlink="http://www.w3.org/1999/xlink" x="0px" y="0px" viewBox="0 0 56 56.01"
	 style="enable-background:new 0 0 56 56.01;" xml:space="preserve">
<style type="text/css">
	.st0{fill:#FFFFFF;}
</style>
<g>
	<path class="st0" d="M48.56,33.42l-2.32-0.74c-0.22-0.69-0.5-1.36-0.83-2.01l1.11-2.16c0.2-0.38,0.12-0.85-0.18-1.15l-3.21-3.19v0
		c-0.24-0.24-0.58-0.34-0.91-0.27c-0.32-2.39-1.18-4.68-2.5-6.7c-1.32-2.02-3.08-3.72-5.14-4.98V8.97c0-0.26-0.1-0.51-0.29-0.7
		c-0.19-0.18-0.44-0.29-0.7-0.29h-3.02V5.03c0-0.26-0.1-0.51-0.29-0.7c-0.19-0.19-0.44-0.29-0.7-0.29h-7.04
		c-0.55,0-0.99,0.44-0.99,0.99v2.96h-3.02c-0.55,0-0.99,0.44-0.99,0.99v3.25c-2.3,1.41-4.22,3.37-5.58,5.7
		c-1.36,2.33-2.11,4.96-2.2,7.66c-0.81,0.04-1.58,0.4-2.14,0.98c-0.56,0.59-0.87,1.37-0.87,2.18v1.57v0c0,0.43,0.17,0.83,0.47,1.13
		c0.3,0.3,0.71,0.47,1.14,0.47h13.37c-0.1,0.25-0.19,0.5-0.27,0.76l-2.32,0.74c-0.41,0.13-0.69,0.51-0.69,0.94v4.52
		c0,0.43,0.28,0.81,0.69,0.94l2.32,0.74c0.22,0.69,0.5,1.36,0.83,2.01l-1.11,2.16c-0.2,0.38-0.12,0.85,0.18,1.15l3.21,3.19
		c0.3,0.3,0.77,0.38,1.15,0.18l2.16-1.11l0,0c0.65,0.33,1.32,0.61,2.01,0.83l0.74,2.31h0c0.13,0.41,0.51,0.69,0.94,0.69h4.53
		c0.43,0,0.81-0.28,0.94-0.69l0.74-2.31c0.69-0.22,1.37-0.5,2.01-0.83l2.16,1.11v0c0.38,0.2,0.85,0.12,1.15-0.18l3.21-3.19
		c0.3-0.3,0.38-0.77,0.18-1.15l-1.11-2.16h0c0.33-0.64,0.61-1.32,0.83-2.01l2.32-0.74l0,0c0.41-0.13,0.69-0.51,0.69-0.94v-4.52
		C49.25,33.93,48.97,33.55,48.56,33.42L48.56,33.42z M17.54,14.6v3.54c0,0.55,0.44,0.99,0.99,0.99c0.55,0,0.99-0.44,0.99-0.99V9.96
		h2.03v10.56c0,0.54,0.44,0.99,0.99,0.99c0.55,0,0.99-0.44,0.99-0.99V6.02h5.06l0,14.51c-0.01,0.27,0.1,0.52,0.28,0.71
		s0.44,0.3,0.71,0.3s0.52-0.11,0.71-0.3s0.29-0.45,0.28-0.71V9.96h2.03v8.18c0,0.55,0.44,0.99,0.99,0.99c0.55,0,0.99-0.44,0.99-0.99
		V14.6c3.31,2.42,5.41,6.16,5.75,10.24l-0.51,0.26c-0.65-0.33-1.32-0.61-2.01-0.83l-0.74-2.31c-0.13-0.41-0.51-0.69-0.94-0.69h-4.53
		c-0.43,0-0.81,0.28-0.94,0.69l-0.74,2.31c-0.69,0.22-1.37,0.5-2.01,0.83l-2.16-1.11h0c-0.38-0.2-0.85-0.12-1.15,0.18l-1.41,1.41
		H11.75C11.91,21.23,14.04,17.19,17.54,14.6L17.54,14.6z M8.73,28.75c0-0.66,0.54-1.2,1.2-1.2h11.29c-0.18,0.29-0.19,0.66-0.03,0.96
		l0.74,1.43H8.73L8.73,28.75z M47.27,38.16l-2.13,0.68h0c-0.32,0.1-0.57,0.36-0.65,0.68c-0.24,0.89-0.6,1.74-1.06,2.55
		c-0.17,0.29-0.17,0.64-0.02,0.94l1.02,1.98l-2.18,2.18l-1.99-1.02h0c-0.3-0.15-0.65-0.15-0.94,0.02c-0.8,0.46-1.66,0.81-2.55,1.05
		c-0.32,0.09-0.58,0.33-0.68,0.65l-0.68,2.12l-3.09,0l-0.68-2.12c-0.1-0.32-0.36-0.56-0.68-0.65c-0.89-0.24-1.75-0.6-2.55-1.05
		c-0.29-0.17-0.65-0.17-0.94-0.02l-1.99,1.02l-2.18-2.18L24.3,43c0.15-0.3,0.15-0.65-0.02-0.94c-0.46-0.8-0.81-1.66-1.06-2.55
		c-0.09-0.32-0.33-0.58-0.65-0.68l-2.13-0.68v-3.08l2.13-0.68c0.32-0.1,0.56-0.36,0.65-0.68c0.24-0.89,0.6-1.74,1.06-2.54
		c0.17-0.29,0.17-0.64,0.02-0.94l-1.02-1.98l0.99-0.99l1.19-1.19l1.99,1.02c0.3,0.15,0.65,0.14,0.95-0.02
		c0.8-0.46,1.66-0.81,2.55-1.05c0.32-0.09,0.58-0.33,0.68-0.65l0.68-2.12h3.09l0.68,2.12h0c0.1,0.32,0.36,0.56,0.68,0.65
		c0.89,0.24,1.75,0.6,2.55,1.05c0.29,0.17,0.65,0.17,0.94,0.02l1.99-1.02l2.18,2.18l-1.02,1.98c-0.15,0.3-0.15,0.65,0.02,0.94
		c0.46,0.8,0.81,1.66,1.06,2.54c0.09,0.32,0.33,0.58,0.65,0.68l2.13,0.68L47.27,38.16z M33.85,28.5c-2.16,0-4.23,0.85-5.76,2.38
		c-1.53,1.52-2.39,3.59-2.39,5.74c0,2.15,0.86,4.22,2.38,5.74c1.53,1.52,3.6,2.38,5.76,2.38c2.16,0,4.23-0.85,5.76-2.38
		c1.53-1.52,2.39-3.59,2.39-5.74c0-2.15-0.86-4.22-2.39-5.74C38.08,29.36,36.01,28.5,33.85,28.5z M33.85,42.76
		c-1.63,0-3.2-0.65-4.36-1.8c-1.16-1.15-1.8-2.72-1.8-4.34c0-1.63,0.65-3.19,1.81-4.34c1.16-1.15,2.72-1.8,4.36-1.8
		c1.63,0,3.2,0.65,4.36,1.8c1.16,1.15,1.81,2.71,1.81,4.34c0,1.63-0.65,3.19-1.81,4.34C37.06,42.11,35.49,42.76,33.85,42.76
		L33.85,42.76z"/>
</g>
</svg>
