<?xml version="1.0" encoding="utf-8"?>
<!-- Generator: Adobe Illustrator 27.5.0, SVG Export Plug-In . SVG Version: 6.00 Build 0)  -->
<svg version="1.1"
	 id="svg16" xmlns:inkscape="http://www.inkscape.org/namespaces/inkscape" xmlns:svg="http://www.w3.org/2000/svg" xmlns:sodipodi="http://sodipodi.sourceforge.net/DTD/sodipodi-0.dtd" xmlns:cc="http://creativecommons.org/ns#" xmlns:dc="http://purl.org/dc/elements/1.1/" xmlns:rdf="http://www.w3.org/1999/02/22-rdf-syntax-ns#" inkscape:version="1.1.2 (b8e25be833, 2022-02-05)" sodipodi:docname="picto_poi_flore.svg"
	 xmlns="http://www.w3.org/2000/svg" xmlns:xlink="http://www.w3.org/1999/xlink" x="0px" y="0px" viewBox="0 0 56 56.01"
	 style="enable-background:new 0 0 56 56.01;" xml:space="preserve">
<style type="text/css">
	.st0{fill:#FFFFFF;}
</style>
<sodipodi:namedview  bordercolor="#eeeeee" borderopacity="1" id="namedview18" inkscape:current-layer="Calque_2" inkscape:cx="28.004999" inkscape:cy="27.970847" inkscape:pagecheckerboard="0" inkscape:pageopacity="0" inkscape:pageshadow="0" inkscape:window-height="1013" inkscape:window-maximized="1" inkscape:window-width="1920" inkscape:window-x="-9" inkscape:window-y="-9" inkscape:zoom="14.640243" pagecolor="#505050" showgrid="false">
	</sodipodi:namedview>
<g>
	<path class="st0" d="M15.64,38.49c0.25,0.25,0.25,0.67,0,0.92l-3.23,3.24c-0.13,0.13-0.29,0.19-0.46,0.19
		c-0.17,0-0.33-0.06-0.46-0.19c-0.25-0.25-0.25-0.67,0-0.92l3.23-3.24C14.97,38.23,15.38,38.23,15.64,38.49L15.64,38.49z M28,8.65
		c0.36,0,0.65-0.29,0.65-0.65V3.42c0-0.36-0.29-0.65-0.65-0.65c-0.36,0-0.65,0.29-0.65,0.65V8C27.35,8.36,27.64,8.65,28,8.65
		L28,8.65z M9.87,25.48H5.29c-0.36,0-0.65,0.29-0.65,0.65c0,0.36,0.29,0.65,0.65,0.65h4.57c0.36,0,0.65-0.29,0.65-0.65
		C10.52,25.77,10.23,25.48,9.87,25.48z M12.4,9.61c-0.25-0.25-0.67-0.25-0.92,0c-0.25,0.25-0.25,0.67,0,0.92l3.23,3.24
		c0.13,0.13,0.29,0.19,0.46,0.19c0.17,0,0.33-0.06,0.46-0.19c0.25-0.25,0.25-0.67,0-0.92L12.4,9.61L12.4,9.61z M50.71,25.48h-4.57
		c-0.36,0-0.65,0.29-0.65,0.65c0,0.36,0.29,0.65,0.65,0.65h4.57c0.36,0,0.65-0.29,0.65-0.65C51.36,25.77,51.07,25.48,50.71,25.48z
		 M41.28,38.49c-0.26-0.25-0.67-0.25-0.92,0c-0.25,0.25-0.25,0.67,0,0.92l3.24,3.24c0.13,0.13,0.29,0.19,0.46,0.19
		c0.17,0,0.33-0.06,0.46-0.19c0.25-0.25,0.25-0.67,0-0.92L41.28,38.49L41.28,38.49z M43.59,9.61l-3.24,3.24
		c-0.25,0.25-0.25,0.67,0,0.92c0.13,0.13,0.29,0.19,0.46,0.19c0.17,0,0.33-0.06,0.46-0.19l3.24-3.24c0.25-0.25,0.25-0.67,0-0.92
		C44.26,9.36,43.85,9.36,43.59,9.61L43.59,9.61z M40.14,26.13c0,4.05-1.27,5.57-2.62,7.18c-1.3,1.55-2.64,3.16-3.01,7.59v5.83
		c0,3.59-2.92,6.51-6.51,6.51s-6.51-2.92-6.51-6.51v-5.86c-0.37-4.4-1.71-6-3.01-7.56c-1.35-1.61-2.62-3.13-2.62-7.18
		c0-6.69,5.45-12.14,12.14-12.14S40.14,19.44,40.14,26.13L40.14,26.13z M22.79,46.08H33.2v-4.55H22.79L22.79,46.08L22.79,46.08z
		 M23.39,29.34l-0.68,0.82c-0.05,0.05-0.05,0.13,0,0.19c0.31,0.38,0.65,0.72,1.03,1.02c0.06,0.05,0.13,0.05,0.18,0l0.82-0.69
		c0.25-0.21,0.57-0.32,0.88-0.32c0.18,0,0.35,0.03,0.52,0.1c0.47,0.19,0.8,0.63,0.84,1.14l0.1,1.06c0.01,0.08,0.06,0.13,0.13,0.13
		c0.48,0.05,0.97,0.05,1.45-0.01c0.07-0.01,0.12-0.06,0.13-0.14l0.09-1.06c0.04-0.51,0.36-0.95,0.83-1.15
		c0.47-0.2,1.01-0.12,1.41,0.21l0.82,0.68c0.06,0.05,0.13,0.05,0.18,0c0.37-0.3,0.72-0.65,1.03-1.03c0.04-0.05,0.04-0.13-0.01-0.19
		l-0.69-0.82c-0.33-0.39-0.42-0.93-0.22-1.4c0.19-0.47,0.63-0.8,1.15-0.85l1.06-0.1c0.08-0.01,0.13-0.05,0.13-0.13
		c0.05-0.47,0.05-0.96,0-1.45c-0.01-0.07-0.06-0.12-0.13-0.13l-1.07-0.09c-0.51-0.04-0.95-0.36-1.15-0.84
		c-0.2-0.47-0.12-1.01,0.21-1.41l0.68-0.82c0.05-0.05,0.05-0.13,0-0.19c-0.3-0.37-0.65-0.71-1.03-1.02
		c-0.06-0.05-0.13-0.04-0.19,0.01l-0.81,0.69c-0.4,0.33-0.94,0.42-1.41,0.22c-0.47-0.19-0.79-0.63-0.84-1.14l-0.1-1.06
		c-0.01-0.07-0.06-0.13-0.13-0.13c-0.48-0.05-0.97-0.05-1.45,0.01c-0.07,0.01-0.12,0.06-0.13,0.14l-0.09,1.06
		c-0.04,0.51-0.36,0.95-0.83,1.15c-0.47,0.2-1.01,0.12-1.41-0.21l-0.82-0.68c-0.06-0.05-0.13-0.05-0.19,0
		c-0.37,0.3-0.71,0.65-1.02,1.03c-0.04,0.05-0.04,0.13,0.01,0.19l0.69,0.82c0.33,0.39,0.42,0.93,0.22,1.4
		c-0.19,0.48-0.63,0.8-1.14,0.85l-1.07,0.1c-0.07,0.01-0.13,0.06-0.13,0.14c-0.05,0.49-0.05,0.97,0.01,1.44
		c0.01,0.08,0.06,0.13,0.13,0.13l1.07,0.09c0.51,0.04,0.95,0.37,1.15,0.84C23.79,28.41,23.71,28.95,23.39,29.34L23.39,29.34z
		 M33.16,47.38H22.84c0.32,2.56,2.51,4.55,5.16,4.55S32.84,49.95,33.16,47.38L33.16,47.38z M38.84,26.13
		c0-5.98-4.86-10.84-10.84-10.84c-5.98,0-10.84,4.86-10.84,10.84c0,3.57,1.07,4.86,2.31,6.35c1.3,1.56,2.77,3.33,3.25,7.74h4.53
		v-6.11c-0.06,0-0.12,0-0.18-0.01c-0.69-0.07-1.23-0.62-1.29-1.31l-0.1-1.06c0-0.02,0-0.04-0.04-0.06c-0.04-0.01-0.06,0-0.07,0.01
		l-0.82,0.69c-0.52,0.45-1.3,0.46-1.84,0.03c-0.45-0.36-0.86-0.77-1.23-1.22c-0.44-0.54-0.44-1.3,0.01-1.84l0.69-0.82
		c0.01-0.01,0.03-0.03,0.01-0.07c-0.02-0.04-0.04-0.04-0.06-0.04l-1.06-0.09c-0.7-0.06-1.24-0.59-1.32-1.28
		c-0.07-0.56-0.07-1.14-0.01-1.73c0.08-0.7,0.62-1.23,1.31-1.3l1.07-0.1c0.01,0,0.04,0,0.06-0.04c0.01-0.04,0-0.06-0.01-0.07
		l-0.69-0.82c-0.45-0.54-0.46-1.29-0.03-1.84c0.37-0.46,0.78-0.87,1.22-1.23c0.55-0.44,1.31-0.44,1.85,0.01l0.82,0.68
		c0.01,0.01,0.03,0.03,0.07,0.01c0.04-0.02,0.04-0.04,0.04-0.06l0.09-1.07c0.06-0.7,0.59-1.24,1.28-1.32
		c0.57-0.06,1.15-0.07,1.73-0.01c0.69,0.07,1.22,0.61,1.29,1.3l0.1,1.07c0,0.02,0,0.04,0.04,0.06c0.04,0.02,0.06,0,0.07-0.01
		l0.81-0.69c0.54-0.45,1.3-0.46,1.85-0.03c0.46,0.37,0.87,0.78,1.23,1.22c0.44,0.54,0.44,1.3-0.01,1.84l-0.69,0.83
		c-0.01,0.01-0.03,0.03-0.01,0.07c0.02,0.04,0.04,0.04,0.06,0.04l1.07,0.09c0.69,0.06,1.24,0.6,1.32,1.28
		c0.06,0.59,0.07,1.17,0,1.73c-0.07,0.69-0.61,1.23-1.31,1.29l-1.06,0.1c-0.01,0-0.04,0-0.06,0.04c-0.01,0.04,0,0.06,0.01,0.07
		l0.69,0.82c0.45,0.54,0.46,1.29,0.03,1.84c-0.37,0.46-0.78,0.88-1.22,1.23c-0.53,0.44-1.3,0.43-1.84-0.01l-0.82-0.68
		c-0.01-0.01-0.04-0.03-0.07-0.01c-0.04,0.02-0.04,0.04-0.04,0.06l-0.09,1.07c-0.06,0.7-0.59,1.24-1.28,1.32
		c-0.08,0.01-0.17,0.01-0.25,0.01v6.12h4.7c0.48-4.41,1.95-6.18,3.25-7.74C37.76,30.99,38.83,29.71,38.84,26.13L38.84,26.13z
		 M23.96,26.13c0-2.18,1.77-3.96,3.95-3.96s3.96,1.77,3.96,3.96s-1.78,3.96-3.96,3.96C25.73,30.09,23.96,28.31,23.96,26.13z
		 M25.26,26.13c0,1.46,1.19,2.65,2.65,2.65s2.65-1.19,2.65-2.65s-1.19-2.65-2.65-2.65C26.45,23.48,25.26,24.67,25.26,26.13z"/>
</g>
</svg>
