<?xml version="1.0" encoding="UTF-8" standalone="no"?>
<svg viewBox="0 0 56 56.01" version="1.1" id="svg16" sodipodi:docname="picto_poi_patrimoine.svg" inkscape:version="1.1.2 (b8e25be833, 2022-02-05)" xmlns:inkscape="http://www.inkscape.org/namespaces/inkscape" xmlns:sodipodi="http://sodipodi.sourceforge.net/DTD/sodipodi-0.dtd" xmlns="http://www.w3.org/2000/svg" xmlns:svg="http://www.w3.org/2000/svg" xmlns:rdf="http://www.w3.org/1999/02/22-rdf-syntax-ns#" xmlns:cc="http://creativecommons.org/ns#" xmlns:dc="http://purl.org/dc/elements/1.1/">
  <sodipodi:namedview id="namedview18" pagecolor="#505050" bordercolor="#eeeeee" borderopacity="1" inkscape:pageshadow="0" inkscape:pageopacity="0" inkscape:pagecheckerboard="0" showgrid="false" inkscape:zoom="14.640243" inkscape:cx="28.004999" inkscape:cy="27.970847" inkscape:window-width="1920" inkscape:window-height="1013" inkscape:window-x="-9" inkscape:window-y="-9" inkscape:window-maximized="1" inkscape:current-layer="svg16"/>
  <defs id="defs4">
    <style id="style2">.cls-1{fill:#a3acaf;stroke:#a3acaf;stroke-linecap:round;stroke-linejoin:round;}.cls-2{fill:#fff;}</style>
  </defs>
  <title id="title6">HISTOIRE ET PATRIMOINE</title>
  <g id="Calque_2" data-name="Calque 2">
    <path class="cls-2" d="M42.65,31.49c-2.15.15-4.31.08-6.46.26A4.24,4.24,0,0,1,33,30.65c-3.21-2.55-6.52-4.93-9.79-7.37-.14-.11-.58-.36-.73-.3-1.95,0-5.47.41-7.8,0-.16,0-5.76,5-9,7.93,0,.05,0,.11,0,.16l.39,9.43a2.13,2.13,0,0,0,2.06,2.06l8.5.16V36.8a3.41,3.41,0,0,1,6.82,0v6l8,.15a3.05,3.05,0,0,0,1.12-.19L50.37,36.2a2.15,2.15,0,0,0,1.39-2l0-3.46C48.75,31,45.7,31.28,42.65,31.49Z" transform="translate(0 0)" id="path11"/>
    <path class="cls-2" d="M53.95,27.75A2.23,2.23,0,0,0,53,26.4c-4.49-2.94-9-5.9-13.46-8.85a5.84,5.84,0,0,0-.87-.48c-4,0-8-.12-12,0-2.55,0-5.19.31-7.74.54-1.16.1-3.58-.13-4.61.34l-.29.12a2.15,2.15,0,0,0-.35.24c-3.29,3-5.16,4.65-8.46,7.61a7.46,7.46,0,0,0-1.9,2.3,1.41,1.41,0,0,0-.07,1.3c.59,1.29.65,1.15,1.65.24C8,27,14.54,21.09,14.7,21.12c2.33.41,5.85,0,7.8,0,.16-.05.59.2.73.3,3.28,2.44,6.58,4.82,9.79,7.37A4.24,4.24,0,0,0,36.2,29.9c2.15-.17,4.31-.11,6.46-.26,3.56-.25,7.12-.59,10.67-.88C53.88,28.71,54.12,28.37,53.95,27.75Z" transform="translate(0 0)" id="path13"/>
  </g>
  <metadata id="metadata835">
    <rdf:RDF>
      <cc:Work rdf:about="">
        <dc:title>HISTOIRE ET PATRIMOINE</dc:title>
      </cc:Work>
    </rdf:RDF>
  </metadata>
</svg>