<?xml version="1.0" encoding="utf-8"?>
<!-- Generator: Adobe Illustrator 27.5.0, SVG Export Plug-In . SVG Version: 6.00 Build 0)  -->
<svg version="1.1"
	 id="svg16" xmlns:inkscape="http://www.inkscape.org/namespaces/inkscape" xmlns:svg="http://www.w3.org/2000/svg" xmlns:sodipodi="http://sodipodi.sourceforge.net/DTD/sodipodi-0.dtd" xmlns:cc="http://creativecommons.org/ns#" xmlns:dc="http://purl.org/dc/elements/1.1/" xmlns:rdf="http://www.w3.org/1999/02/22-rdf-syntax-ns#" inkscape:version="1.1.2 (b8e25be833, 2022-02-05)" sodipodi:docname="picto_poi_flore.svg"
	 xmlns="http://www.w3.org/2000/svg" xmlns:xlink="http://www.w3.org/1999/xlink" x="0px" y="0px" viewBox="0 0 56 56.01"
	 style="enable-background:new 0 0 56 56.01;" xml:space="preserve">
<style type="text/css">
	.st0{fill:#FFFFFF;}
</style>
<sodipodi:namedview  bordercolor="#eeeeee" borderopacity="1" id="namedview18" inkscape:current-layer="Calque_2" inkscape:cx="28.004999" inkscape:cy="27.970847" inkscape:pagecheckerboard="0" inkscape:pageopacity="0" inkscape:pageshadow="0" inkscape:window-height="1013" inkscape:window-maximized="1" inkscape:window-width="1920" inkscape:window-x="-9" inkscape:window-y="-9" inkscape:zoom="14.640243" pagecolor="#505050" showgrid="false">
	</sodipodi:namedview>
<g id="Calque_2_00000070081710612505585260000005690662353074148485_">
	<path id="path11" class="st0" d="M21.57,3c-1.93,0.61-3.37,2.22-3.75,4.21c-1.14,4.48-0.15,9.24,2.69,12.9
		c0.71,0.83,1.47,1.6,2.3,2.3l-0.76,0.85l-1.33-1.59c-0.88-0.97-1.95-1.76-3.13-2.33c-2.7-1.44-5.78-2.01-8.81-1.63
		c-4.43,0.56-6.88,3.54-5.31,7.09c0.7,1.46,1.79,2.7,3.15,3.57c1.52,1.04,3.21,1.79,5,2.23c1.94,0.48,3.96,0.57,5.93,0.25
		c0.93-0.21,1.84-0.5,2.73-0.85l0.3,1.14c-0.48,0.09-0.95,0.19-1.42,0.27c-1.76,0.34-3.41,1.1-4.81,2.23c-2.13,1.54-3.82,3.61-4.9,6
		c-0.96,1.8-1.18,3.9-0.61,5.86c0.86,2.51,3.33,3.31,6.16,2.65c1.93-0.48,3.7-1.43,5.18-2.76c2.43-1.96,4.16-4.66,4.91-7.69
		c0.11-0.51,0.15-1.03,0.24-1.64l1.21,0.33c-1.69,3.79-1.34,7.49,0.06,11.17c0.71,1.98,1.92,3.73,3.53,5.08
		c1.11,1.04,2.63,1.52,4.14,1.3c1.33-0.23,2.48-1.08,3.07-2.3c1.18-2.18,1.59-4.68,1.16-7.12c-0.25-2.77-1.29-5.41-3-7.6
		c-0.66-0.83-1.5-1.56-2.31-2.39l0.74-0.76c0.57,0.71,1.18,1.38,1.84,2c0.82,0.69,1.7,1.3,2.63,1.83c1.93,1.02,4.05,1.63,6.23,1.8
		c1.45,0.12,2.91-0.07,4.28-0.55c0.82-0.23,1.6-0.61,2.28-1.13c1.5-1.02,2.16-2.89,1.65-4.63c-0.53-1.73-1.64-3.23-3.14-4.24
		c-1.72-1.25-3.69-2.13-5.77-2.58c-1.77-0.43-3.61-0.48-5.41-0.17c-0.95,0.23-1.88,0.53-2.79,0.9l-0.34-1.13
		c0.56-0.12,1.1-0.25,1.65-0.34c1.52-0.3,2.94-0.94,4.17-1.87c2.2-1.5,3.97-3.54,5.13-5.94c0.96-2.02,1.52-4.07,0.77-6.26
		s-2.95-3.23-5.66-2.72c-1.75,0.36-3.4,1.11-4.82,2.2c-1.92,1.39-3.5,3.19-4.63,5.27c-0.81,1.46-1.27,3.1-1.35,4.77l-1.22-0.27
		c0.25-0.72,0.55-1.39,0.72-2.08c0.78-3.37,0.37-6.9-1.15-10c-0.71-1.72-1.86-3.23-3.32-4.38c-0.79-0.49-1.63-0.91-2.5-1.25H21.57z
		 M27.49,21.65c3.79-0.18,7.01,2.74,7.19,6.52c0.18,3.78-2.75,6.99-6.54,7.17c-3.79,0.18-7.01-2.74-7.19-6.52
		C20.77,25.03,23.7,21.83,27.49,21.65z"/>
</g>
<g>
	<path class="st0" d="M22.95,32.91h9.28h0c0.54,0,1.04-0.29,1.32-0.76c0.27-0.47,0.28-1.06,0.01-1.53l-4.64-8.22
		c-0.18-0.32-0.46-0.56-0.8-0.68s-0.71-0.13-1.05,0s-0.62,0.37-0.8,0.68l-4.64,8.22c-0.27,0.48-0.27,1.06,0.01,1.53
		C21.9,32.62,22.41,32.91,22.95,32.91L22.95,32.91z M22.39,31.06l4.64-8.22c0.08-0.13,0.2-0.24,0.34-0.29c0.14-0.05,0.3-0.05,0.44,0
		c0.14,0.05,0.26,0.15,0.34,0.29l4.64,8.22c0.11,0.2,0.11,0.45,0,0.65c-0.12,0.2-0.33,0.32-0.56,0.32h-9.28
		c-0.23,0-0.44-0.12-0.56-0.32C22.28,31.5,22.28,31.26,22.39,31.06L22.39,31.06z"/>
	<path class="st0" d="M27.55,29.58h0.07c0.1,0,0.2-0.04,0.28-0.11c0.08-0.07,0.12-0.16,0.13-0.27l0.33-3.71v0
		c0.01-0.12-0.03-0.23-0.11-0.32c-0.08-0.09-0.19-0.13-0.3-0.13h-0.74c-0.11,0-0.22,0.05-0.3,0.13c-0.08,0.09-0.12,0.2-0.11,0.32
		l0.34,3.71c0.01,0.1,0.06,0.2,0.13,0.27C27.35,29.54,27.45,29.58,27.55,29.58L27.55,29.58z"/>
	<path class="st0" d="M27.59,29.99c-0.11,0-0.21,0.04-0.29,0.12c-0.08,0.08-0.12,0.18-0.12,0.29c0,0.11,0.04,0.21,0.12,0.29
		c0.08,0.08,0.18,0.12,0.29,0.12c0.11,0,0.21-0.04,0.29-0.12c0.08-0.08,0.12-0.18,0.12-0.29c0-0.11-0.04-0.21-0.12-0.29
		C27.8,30.04,27.69,29.99,27.59,29.99L27.59,29.99z"/>
</g>
</svg>
