<?xml version="1.0" encoding="utf-8"?>
<!-- Generator: Adobe Illustrator 27.5.0, SVG Export Plug-In . SVG Version: 6.00 Build 0)  -->
<svg version="1.1"
	 id="svg18" xmlns:inkscape="http://www.inkscape.org/namespaces/inkscape" xmlns:svg="http://www.w3.org/2000/svg" xmlns:sodipodi="http://sodipodi.sourceforge.net/DTD/sodipodi-0.dtd" xmlns:cc="http://creativecommons.org/ns#" xmlns:dc="http://purl.org/dc/elements/1.1/" xmlns:rdf="http://www.w3.org/1999/02/22-rdf-syntax-ns#" inkscape:version="1.1.2 (b8e25be833, 2022-02-05)" sodipodi:docname="picto_poi_cascade.svg"
	 xmlns="http://www.w3.org/2000/svg" xmlns:xlink="http://www.w3.org/1999/xlink" x="0px" y="0px" viewBox="0 0 56 56.01"
	 style="enable-background:new 0 0 56 56.01;" xml:space="preserve">
<style type="text/css">
	.st0{fill:#FFFFFF;}
</style>
<sodipodi:namedview  bordercolor="#eeeeee" borderopacity="1" id="namedview20" inkscape:current-layer="svg18" inkscape:cx="17.677376" inkscape:cy="28.834408" inkscape:pagecheckerboard="0" inkscape:pageopacity="0" inkscape:pageshadow="0" inkscape:window-height="1013" inkscape:window-maximized="1" inkscape:window-width="1920" inkscape:window-x="-9" inkscape:window-y="-9" inkscape:zoom="10.352215" pagecolor="#505050" showgrid="false">
	</sodipodi:namedview>
<g id="Calque_1">
</g>
<g>
	<path class="st0" d="M43.8,16.45c-1.15,0-2.06-0.4-2.84-1.19c-0.41-0.4-0.78-0.85-1.15-1.3c-0.23-0.28-0.5-0.56-0.78-0.79
		c-0.5-0.45-1.05-0.51-1.6-0.06c-0.37,0.28-0.69,0.62-0.96,0.96c-0.32,0.4-0.69,0.79-1.05,1.13c-1.7,1.64-3.8,1.64-5.5,0
		c-0.37-0.4-0.73-0.79-1.05-1.19c-0.27-0.34-0.55-0.68-0.92-0.9c-0.46-0.34-0.92-0.4-1.37-0.06c-0.41,0.28-0.78,0.68-1.1,1.07
		c-0.37,0.4-0.69,0.79-1.05,1.13c-1.7,1.58-3.8,1.58-5.45-0.11c-0.37-0.4-0.73-0.79-1.05-1.19c-0.23-0.28-0.5-0.56-0.78-0.85
		c-0.55-0.45-1.05-0.45-1.56-0.06c-0.46,0.34-0.82,0.79-1.24,1.24c-0.5,0.56-1.01,1.13-1.6,1.53c-1.6,0.96-3.16,0.79-4.58-0.51
		c-0.46-0.4-0.82-0.85-1.19-1.3c-0.46-0.56-0.5-1.47-0.05-2.03c0.46-0.56,1.15-0.56,1.65,0c0.27,0.34,0.55,0.62,0.82,0.96
		c0.73,0.85,1.83,0.9,2.66,0.06c0.46-0.45,0.87-0.96,1.28-1.41c0.5-0.56,1.01-1.02,1.65-1.3c1.1-0.51,2.11-0.4,3.12,0.34
		c0.5,0.34,0.96,0.79,1.37,1.3c0.27,0.34,0.55,0.68,0.87,0.96c0.82,0.96,1.97,0.96,2.84-0.06c0.46-0.51,0.87-1.02,1.33-1.47
		c0.64-0.68,1.33-1.19,2.2-1.36c0.96-0.23,1.83,0.11,2.66,0.79c0.41,0.34,0.78,0.68,1.1,1.13c0.37,0.4,0.69,0.85,1.1,1.24
		c0.6,0.56,1.56,0.62,2.15,0.11c0.55-0.45,1.01-1.02,1.47-1.58c0.5-0.51,1.01-1.02,1.6-1.36c1.15-0.62,2.24-0.51,3.3,0.28
		c0.46,0.34,0.92,0.79,1.28,1.24c0.32,0.34,0.6,0.68,0.92,1.07c0.73,0.85,1.88,0.9,2.7,0c0.41-0.4,0.78-0.85,1.15-1.3
		c0.5-0.51,1.15-0.51,1.6,0.06c0.37,0.45,0.5,1.3,0.14,1.81c-0.82,1.13-1.7,2.15-2.93,2.71C44.53,16.34,44.12,16.39,43.8,16.45
		L43.8,16.45z"/>
	<path class="st0" d="M43.34,37.01c-0.69,0-1.56-0.34-2.34-1.13c-0.41-0.4-0.82-0.85-1.19-1.36c-0.27-0.34-0.55-0.62-0.87-0.9
		c-0.46-0.4-0.92-0.45-1.42-0.11c-0.46,0.34-0.87,0.79-1.24,1.24c-0.55,0.62-1.05,1.24-1.7,1.58c-1.51,0.9-3.02,0.73-4.4-0.45
		c-0.5-0.4-0.92-0.9-1.33-1.41c-0.27-0.34-0.55-0.62-0.87-0.9c-0.46-0.4-0.92-0.45-1.42-0.11c-0.46,0.34-0.87,0.79-1.24,1.24
		c-0.64,0.73-1.28,1.47-2.15,1.86c-1.42,0.62-2.79,0.4-4.03-0.73c-0.46-0.4-0.87-0.9-1.28-1.41c-0.27-0.34-0.55-0.62-0.87-0.9
		c-0.46-0.34-0.92-0.4-1.37-0.06c-0.5,0.34-0.87,0.79-1.28,1.24c-0.46,0.56-0.96,1.07-1.51,1.47c-1.51,1.07-3.34,0.9-4.72-0.45
		c-0.41-0.4-0.82-0.85-1.19-1.36c-0.46-0.56-0.46-1.41,0-1.98c0.41-0.56,1.15-0.56,1.6-0.06c0.32,0.34,0.6,0.73,0.92,1.02
		c0.73,0.79,1.6,0.85,2.43,0.17c0.5-0.4,0.92-0.96,1.33-1.41c0.55-0.62,1.15-1.13,1.83-1.47c1.1-0.51,2.11-0.4,3.07,0.34
		c0.46,0.34,0.92,0.79,1.33,1.24c0.32,0.34,0.6,0.73,0.92,1.07c0.87,0.9,1.83,0.9,2.7,0c0.37-0.4,0.73-0.85,1.15-1.24
		c0.69-0.73,1.47-1.36,2.38-1.64c0.87-0.23,1.7,0,2.47,0.56c0.55,0.4,1.05,0.96,1.51,1.53c0.23,0.28,0.46,0.56,0.69,0.79
		c0.92,0.96,1.92,0.96,2.84-0.06c0.46-0.51,0.92-1.02,1.37-1.53c0.69-0.68,1.42-1.24,2.34-1.36c0.78-0.11,1.51,0.11,2.15,0.56
		c0.5,0.34,0.96,0.85,1.37,1.3c0.32,0.4,0.64,0.73,0.96,1.13c0.64,0.73,1.7,0.79,2.43,0.11c0.5-0.45,0.92-1.02,1.37-1.47
		c0.6-0.62,1.47-0.45,1.79,0.4c0.23,0.56,0.14,1.24-0.27,1.69c-0.32,0.79-0.73,1.3-1.24,1.75C45.59,36.56,44.67,37.01,43.34,37.01
		L43.34,37.01z"/>
	<path class="st0" d="M43.66,26.73c-1.01,0-1.92-0.4-2.7-1.19c-0.37-0.4-0.73-0.79-1.1-1.24c-0.27-0.34-0.6-0.68-0.92-0.9
		c-0.41-0.34-0.87-0.34-1.33-0.06c-0.46,0.34-0.87,0.79-1.28,1.24c-0.5,0.62-1.05,1.19-1.7,1.58c-1.56,0.96-3.07,0.79-4.54-0.45
		c-0.46-0.4-0.87-0.9-1.28-1.41c-0.27-0.34-0.55-0.62-0.87-0.9c-0.46-0.34-0.87-0.4-1.33-0.06c-0.32,0.23-0.64,0.51-0.92,0.79
		c-0.41,0.45-0.82,0.96-1.28,1.36c-1.7,1.64-3.85,1.64-5.5,0c-0.37-0.4-0.73-0.79-1.1-1.24c-0.27-0.34-0.55-0.62-0.87-0.9
		C16.54,23,16.08,23,15.67,23.29c-0.37,0.23-0.69,0.56-1.01,0.9c-0.41,0.45-0.78,0.9-1.19,1.3c-1.65,1.64-3.99,1.53-5.5-0.06
		c-0.32-0.34-0.69-0.73-1.01-1.19c-0.46-0.56-0.46-1.47,0-1.98c0.46-0.56,1.15-0.56,1.6-0.06c0.32,0.4,0.64,0.79,1.01,1.13
		c0.64,0.62,1.51,0.68,2.2,0.17c0.5-0.4,0.92-0.96,1.37-1.41c0.55-0.62,1.15-1.19,1.83-1.53c1.1-0.56,2.2-0.45,3.21,0.34
		c0.55,0.4,1.01,0.9,1.47,1.47c0.27,0.34,0.5,0.62,0.82,0.9c0.73,0.79,1.6,0.85,2.43,0.17c0.5-0.4,0.92-0.96,1.33-1.41
		c0.5-0.56,1.1-1.07,1.74-1.41c1.1-0.56,2.2-0.45,3.21,0.34c0.73,0.56,1.33,1.36,1.97,2.09c0.32,0.4,0.69,0.73,1.15,0.85
		c0.73,0.17,1.33-0.11,1.83-0.73c0.37-0.4,0.73-0.79,1.05-1.19c0.55-0.56,1.1-1.07,1.79-1.41c1.05-0.51,2.11-0.34,3.07,0.34
		c0.5,0.4,0.96,0.85,1.37,1.36c0.27,0.34,0.55,0.62,0.82,0.96c0.92,0.96,1.92,0.96,2.84,0c0.37-0.4,0.69-0.79,1.05-1.19
		c0.5-0.56,1.19-0.56,1.65,0.06c0.46,0.56,0.41,1.41-0.05,1.98c-0.64,0.73-1.24,1.53-2.02,2.03C45.08,26.51,44.4,26.73,43.66,26.73
		L43.66,26.73z"/>
	<path class="st0" d="M43.44,47.3c-1.05,0.06-2.06-0.68-2.93-1.69c-0.46-0.51-0.87-1.13-1.37-1.53c-0.6-0.51-1.05-0.56-1.65-0.06
		c-0.46,0.34-0.82,0.79-1.19,1.24c-0.5,0.62-1.05,1.19-1.7,1.58c-1.51,0.85-2.98,0.73-4.35-0.45c-0.46-0.4-0.87-0.9-1.28-1.41
		c-0.27-0.34-0.55-0.62-0.87-0.9c-0.5-0.4-0.96-0.45-1.47-0.06c-0.46,0.34-0.82,0.79-1.24,1.24c-0.5,0.56-0.96,1.13-1.56,1.53
		c-1.51,1.02-3.3,0.85-4.63-0.45c-0.46-0.45-0.87-0.96-1.33-1.47c-0.27-0.28-0.55-0.56-0.82-0.79c-0.41-0.28-0.82-0.34-1.28-0.06
		c-0.32,0.23-0.64,0.51-0.92,0.85c-0.69,0.73-1.28,1.58-2.15,2.09c-1.51,0.85-2.98,0.73-4.35-0.45c-0.5-0.4-0.92-0.96-1.33-1.47
		c-0.46-0.56-0.46-1.41,0-1.98c0.46-0.56,1.15-0.62,1.6-0.06c0.32,0.4,0.64,0.79,1.01,1.13c0.73,0.68,1.51,0.73,2.29,0.11
		c0.46-0.34,0.82-0.85,1.24-1.3c0.6-0.68,1.28-1.3,2.06-1.64c1.1-0.51,2.11-0.34,3.07,0.4c0.46,0.34,0.92,0.79,1.33,1.3
		c0.32,0.34,0.6,0.73,0.92,1.07c0.73,0.79,1.6,0.85,2.43,0.17c0.5-0.4,0.87-0.96,1.33-1.41c0.55-0.62,1.19-1.19,1.88-1.47
		c1.05-0.51,2.06-0.34,3.07,0.34c0.5,0.34,0.92,0.79,1.33,1.3c0.32,0.4,0.64,0.79,1.01,1.13c0.73,0.73,1.6,0.79,2.38,0.11
		c0.5-0.4,0.87-0.96,1.33-1.41c0.55-0.56,1.1-1.07,1.74-1.41c1.1-0.56,2.2-0.45,3.21,0.34c0.55,0.4,1.01,0.9,1.42,1.41
		c0.23,0.28,0.46,0.56,0.73,0.79c0.92,0.96,1.88,0.96,2.79,0c0.37-0.4,0.73-0.79,1.05-1.19c0.69-0.73,1.74-0.4,1.92,0.68
		c0.09,0.45,0.05,0.9-0.23,1.19c-0.69,0.85-1.37,1.69-2.24,2.26C44.99,47.13,44.35,47.3,43.44,47.3L43.44,47.3z"/>
</g>
</svg>
