<?xml version="1.0" encoding="utf-8"?>
<!-- Generator: Adobe Illustrator 27.5.0, SVG Export Plug-In . SVG Version: 6.00 Build 0)  -->
<svg version="1.1"
	 id="svg18" xmlns:inkscape="http://www.inkscape.org/namespaces/inkscape" xmlns:svg="http://www.w3.org/2000/svg" xmlns:sodipodi="http://sodipodi.sourceforge.net/DTD/sodipodi-0.dtd" xmlns:cc="http://creativecommons.org/ns#" xmlns:dc="http://purl.org/dc/elements/1.1/" xmlns:rdf="http://www.w3.org/1999/02/22-rdf-syntax-ns#" inkscape:version="1.1.2 (b8e25be833, 2022-02-05)" sodipodi:docname="picto_poi_cascade.svg"
	 xmlns="http://www.w3.org/2000/svg" xmlns:xlink="http://www.w3.org/1999/xlink" x="0px" y="0px" viewBox="0 0 56 56.01"
	 style="enable-background:new 0 0 56 56.01;" xml:space="preserve">
<style type="text/css">
	.st0{fill:#FFFFFF;stroke:#FFFFFF;stroke-width:2;stroke-miterlimit:10;}
</style>
<sodipodi:namedview  bordercolor="#eeeeee" borderopacity="1" id="namedview20" inkscape:current-layer="svg18" inkscape:cx="17.677376" inkscape:cy="28.834408" inkscape:pagecheckerboard="0" inkscape:pageopacity="0" inkscape:pageshadow="0" inkscape:window-height="1013" inkscape:window-maximized="1" inkscape:window-width="1920" inkscape:window-x="-9" inkscape:window-y="-9" inkscape:zoom="10.352215" pagecolor="#505050" showgrid="false">
	</sodipodi:namedview>
<g id="Calque_1">
</g>
<g id="Calque_2_00000116946703605487031610000008507384647971011258_">
	<path id="path11" class="st0" d="M37.42,42.86c-0.28-1.31-0.34-2.67-0.16-4c0.1-1.38,0.22-2.75,0.24-4.16
		c0.03-2.47-0.94-4.86-2.68-6.61c-1.01-1.08-1.95-2.22-2.82-3.42c-1.46-2.09-2.05-4.67-1.66-7.19c0.19-1.56,0.29-3.12,0.27-4.69
		c-0.06-2.21-0.85-4.35-2.23-6.08c-0.26-0.33-0.5-0.68-0.74-1c-0.32-0.37-0.44-0.87-0.32-1.34c0.16-0.47,0.49-0.76,0.91-0.52
		c0.5,0.27,0.93,0.64,1.28,1.08c2.11,2.7,3.12,6.09,2.85,9.5c-0.11,1.33-0.22,2.67-0.35,4c-0.16,1.99,0.5,3.96,1.82,5.45
		c1.36,1.63,2.64,3.32,3.83,5.08c1.29,2.09,1.86,4.55,1.62,7c-0.13,1.73-0.23,3.47-0.3,5.23c-0.04,0.94,0.25,1.86,0.8,2.61
		c0.56,0.77,1.17,1.49,1.75,2.24c0.7,0.77,1.03,1.82,0.89,2.85c-0.06,0.31-0.21,0.69-0.4,0.73c-0.19,0.04-0.46-0.35-0.66-0.61
		c-0.76-1-1.5-2-2.24-2.95C38.36,45.11,37.78,44.02,37.42,42.86z"/>
	<path id="path13" class="st0" d="M29.68,44.63c-0.28-1.31-0.34-2.67-0.16-4c0.1-1.38,0.22-2.75,0.24-4.16
		c0.03-2.47-0.94-4.86-2.68-6.61c-1.01-1.08-1.96-2.22-2.83-3.42c-1.46-2.09-2.05-4.67-1.66-7.19c0.19-1.56,0.29-3.12,0.27-4.69
		c-0.06-2.21-0.85-4.35-2.23-6.08c-0.26-0.33-0.5-0.68-0.74-1c-0.32-0.37-0.44-0.87-0.32-1.34c0.16-0.47,0.49-0.76,0.91-0.52
		c0.5,0.27,0.93,0.64,1.28,1.08c2.11,2.7,3.12,6.09,2.85,9.5c-0.11,1.33-0.22,2.67-0.35,4c-0.16,1.99,0.5,3.96,1.82,5.45
		c1.36,1.63,2.64,3.32,3.83,5.08c1.29,2.09,1.86,4.55,1.62,7c-0.13,1.73-0.23,3.47-0.3,5.23c-0.04,0.94,0.25,1.86,0.8,2.61
		c0.56,0.77,1.17,1.49,1.75,2.24c0.7,0.77,1.03,1.82,0.89,2.85c-0.06,0.31-0.21,0.69-0.4,0.73c-0.19,0.04-0.46-0.35-0.66-0.61
		c-0.76-1-1.5-2-2.24-2.95C30.61,46.88,30.04,45.79,29.68,44.63z"/>
	<path id="path15" class="st0" d="M21.95,46.39c-0.28-1.31-0.34-2.67-0.16-4c0.1-1.38,0.22-2.75,0.24-4.16
		c0.03-2.47-0.94-4.86-2.68-6.61c-1.01-1.08-1.96-2.22-2.83-3.42c-1.46-2.1-2.05-4.68-1.66-7.2c0.19-1.56,0.29-3.12,0.27-4.69
		c-0.06-2.21-0.85-4.35-2.23-6.08c-0.26-0.33-0.5-0.68-0.74-1c-0.32-0.37-0.44-0.87-0.32-1.34c0.16-0.47,0.49-0.76,0.91-0.52
		C13.23,7.64,13.66,8,14,8.44c2.11,2.7,3.12,6.09,2.85,9.5c-0.11,1.33-0.22,2.67-0.35,4c-0.16,1.99,0.5,3.96,1.82,5.45
		c1.36,1.63,2.64,3.32,3.83,5.08c1.29,2.09,1.86,4.55,1.62,7c-0.13,1.73-0.23,3.47-0.3,5.23c-0.04,0.94,0.25,1.86,0.8,2.61
		c0.56,0.77,1.17,1.49,1.75,2.24c0.7,0.77,1.03,1.82,0.89,2.85c-0.06,0.31-0.21,0.69-0.4,0.73s-0.46-0.35-0.66-0.61
		c-0.76-1-1.5-2-2.24-2.95C22.86,48.62,22.3,47.54,21.95,46.39z"/>
</g>
</svg>
