<?xml version="1.0" encoding="UTF-8" standalone="no"?>
<svg viewBox="0 0 56 56.01" version="1.1" id="svg16" sodipodi:docname="picto_poi_flore.svg" inkscape:version="1.1.2 (b8e25be833, 2022-02-05)" xmlns:inkscape="http://www.inkscape.org/namespaces/inkscape" xmlns:sodipodi="http://sodipodi.sourceforge.net/DTD/sodipodi-0.dtd" xmlns="http://www.w3.org/2000/svg" xmlns:svg="http://www.w3.org/2000/svg" xmlns:rdf="http://www.w3.org/1999/02/22-rdf-syntax-ns#" xmlns:cc="http://creativecommons.org/ns#" xmlns:dc="http://purl.org/dc/elements/1.1/">
  <sodipodi:namedview id="namedview18" pagecolor="#505050" bordercolor="#eeeeee" borderopacity="1" inkscape:pageshadow="0" inkscape:pageopacity="0" inkscape:pagecheckerboard="0" showgrid="false" inkscape:zoom="14.640243" inkscape:cx="28.004999" inkscape:cy="27.970847" inkscape:window-width="1920" inkscape:window-height="1013" inkscape:window-x="-9" inkscape:window-y="-9" inkscape:window-maximized="1" inkscape:current-layer="Calque_2"/>
  <defs id="defs4">
    <style id="style2">.cls-1,.cls-3{fill:#7dad00;}.cls-1{stroke:#7dad00;stroke-linecap:round;stroke-linejoin:round;}.cls-2{fill:#fff;stroke:#fff;stroke-miterlimit:10;stroke-width:0.25px;}</style>
  </defs>
  <title id="title6">FLORE</title>
  <g id="Calque_2" data-name="Calque 2">
    <path id="path11" class="cls-2" d="m 21.570312,3 a 5.5,5.5 0 0 0 -3.75,4.2109375 15,15 0 0 0 2.689454,12.8984375 20.78,20.78 0 0 0 2.300781,2.300781 l -0.759766,0.84961 -1.330078,-1.589844 A 10.11,10.11 0 0 0 17.589844,19.339844 14.73,14.73 0 0 0 8.7792969,17.710938 c -4.43,0.559999 -6.8785938,3.539843 -5.3085938,7.089843 a 8.67,8.67 0 0 0 3.1484375,3.56836 15.31,15.31 0 0 0 5.0000004,2.230468 14.87,14.87 0 0 0 5.93164,0.25 A 18.24,18.24 0 0 0 20.279297,30 l 0.300781,1.140625 c -0.48,0.09 -0.949922,0.189531 -1.419922,0.269531 a 10.91,10.91 0 0 0 -4.810547,2.230469 15.11,15.11 0 0 0 -4.9003902,6 A 7.81,7.81 0 0 0 8.8398438,45.5 C 9.6998437,48.01 12.17,48.810391 15,48.150391 a 12.19,12.19 0 0 0 5.179688,-2.759766 14.28,14.28 0 0 0 4.910156,-7.691406 c 0.11,-0.51 0.150234,-1.028672 0.240234,-1.638672 l 1.208984,0.330078 c -1.69,3.79 -1.339453,7.489922 0.06055,11.169922 a 11.82,11.82 0 0 0 3.53125,5.080078 5,5 0 0 0 4.138672,1.298828 4.19,4.19 0 0 0 3.070313,-2.298828 11,11 0 0 0 1.160156,-7.121094 14.48,14.48 0 0 0 -3,-7.599609 c -0.66,-0.83 -1.500547,-1.560625 -2.310547,-2.390625 l 0.740235,-0.759766 a 20.15,20.15 0 0 0 1.839843,2 18.42,18.42 0 0 0 2.63086,1.830078 16,16 0 0 0 6.230468,1.800782 10.4,10.4 0 0 0 4.279297,-0.550782 6.91,6.91 0 0 0 2.279297,-1.128906 4.18,4.18 0 0 0 1.650391,-4.630859 A 7.85,7.85 0 0 0 49.699219,28.849609 15.35,15.35 0 0 0 43.929688,26.269531 13.35,13.35 0 0 0 38.519531,26.099609 18.87,18.87 0 0 0 35.730469,27 l -0.339844,-1.130859 c 0.56,-0.12 1.098438,-0.249844 1.648437,-0.339844 a 10.09,10.09 0 0 0 4.171876,-1.869141 15.19,15.19 0 0 0 5.128906,-5.939453 c 0.96,-2.02 1.519531,-4.069766 0.769531,-6.259765 -0.75,-2.1900005 -2.950156,-3.2307036 -5.660156,-2.7207036 A 11.84,11.84 0 0 0 36.630859,10.939453 15.9,15.9 0 0 0 32,16.210938 10.83,10.83 0 0 0 30.650391,20.980469 l -1.220703,-0.269531 c 0.25,-0.720001 0.550703,-1.390079 0.720703,-2.080079 A 15,15 0 0 0 29,8.6308594 10.88,10.88 0 0 0 25.679688,4.25 15.22,15.22 0 0 0 23.179688,3 Z m 5.917969,18.646484 a 6.8499999,6.8699999 87.3 0 1 7.185547,6.517578 6.8499999,6.8699999 87.3 0 1 -6.539062,7.166016 6.8499999,6.8699999 87.3 0 1 -7.185547,-6.517578 6.8499999,6.8699999 87.3 0 1 6.539062,-7.166016 z"/>
  </g>
  <metadata id="metadata835">
    <rdf:RDF>
      <cc:Work rdf:about="">
        <dc:title>FLORE</dc:title>
      </cc:Work>
    </rdf:RDF>
  </metadata>
</svg>