<?xml version="1.0" encoding="utf-8"?>
<!-- Generator: Adobe Illustrator 27.5.0, SVG Export Plug-In . SVG Version: 6.00 Build 0)  -->
<svg version="1.1"
	 id="svg16" xmlns:inkscape="http://www.inkscape.org/namespaces/inkscape" xmlns:svg="http://www.w3.org/2000/svg" xmlns:sodipodi="http://sodipodi.sourceforge.net/DTD/sodipodi-0.dtd" xmlns:cc="http://creativecommons.org/ns#" xmlns:dc="http://purl.org/dc/elements/1.1/" xmlns:rdf="http://www.w3.org/1999/02/22-rdf-syntax-ns#" inkscape:version="1.1.2 (b8e25be833, 2022-02-05)" sodipodi:docname="picto_poi_flore.svg"
	 xmlns="http://www.w3.org/2000/svg" xmlns:xlink="http://www.w3.org/1999/xlink" x="0px" y="0px" viewBox="0 0 56 56.01"
	 style="enable-background:new 0 0 56 56.01;" xml:space="preserve">
<style type="text/css">
	.st0{fill:#FFFFFF;}
</style>
<g>
	<path class="st0" d="M51.23,45.72L29.1,7.39c-0.45-0.78-1.65-0.78-2.11,0L4.81,45.82c-0.49,0.84,0.2,1.82,1.05,1.82h44.37
		C51.32,47.64,51.53,46.59,51.23,45.72L51.23,45.72z M7.97,45.21l20.08-34.78l20.08,34.78H7.97z"/>
	<path class="st0" d="M34.74,41.99c-0.68,0.61-1.14,1.37-1.34,2.25h13.06l-4.94-8.55c-1.69,1.16-2.14,2.83-3.46,4.14
		C37.14,40.75,35.72,41.12,34.74,41.99C34.06,42.6,35.34,41.46,34.74,41.99L34.74,41.99z"/>
	<path class="st0" d="M31.94,22.2c0,1.15-0.93,2.09-2.09,2.09c-1.15,0-2.09-0.93-2.09-2.09c0-1.15,0.93-2.09,2.09-2.09
		C31,20.11,31.94,21.05,31.94,22.2"/>
	<path class="st0" d="M32.97,36.21c0.01-0.04,0.01-0.05,0.02-0.07C32.98,36.17,32.97,36.21,32.97,36.21z"/>
	<path class="st0" d="M32.97,36.21c0.05-0.19,0.05-0.38,0-0.58l-2.47-9.19c-0.16-1.02-1.02-1.82-2.06-1.88l-5.51-0.73
		c-0.42-0.02-0.84,0.19-1.06,0.57l-2.42,4.19c-0.66,1.13,0.86,2.31,1.8,1.41L23,31.19l-0.41,6.69l-5.34,3.75
		c-1.46,1.02,0.17,3.18,1.55,2.21l5.83-4.09c0.35-0.25,0.55-0.61,0.62-1.07l0.26-4.22l3.66,2.59v5.79c0,1.74,2.7,1.74,2.7,0v-5.74
		l4.42,2.95c0.29-0.17,1.01-0.4,1.2-0.82L32.97,36.21z M23.58,29.95l-1.62-1.08l1.53-2.65l2.33,0.32L23.58,29.95z M27.27,32.4
		L29,29.77l1.24,4.62L27.27,32.4z"/>
	<path class="st0" d="M32.99,36.14C32.99,36.13,32.99,36.12,32.99,36.14z"/>
</g>
</svg>
