<?xml version="1.0" encoding="UTF-8" standalone="no"?>
<svg
   xmlns:dc="http://purl.org/dc/elements/1.1/"
   xmlns:cc="http://creativecommons.org/ns#"
   xmlns:rdf="http://www.w3.org/1999/02/22-rdf-syntax-ns#"
   xmlns:svg="http://www.w3.org/2000/svg"
   xmlns="http://www.w3.org/2000/svg"
   xmlns:sodipodi="http://sodipodi.sourceforge.net/DTD/sodipodi-0.dtd"
   xmlns:inkscape="http://www.inkscape.org/namespaces/inkscape"
   version="1.1"
   id="Layer_1"
   x="0px"
   y="0px"
   viewBox="0 0 512 512"
   style="enable-background:new 0 0 512 512;"
   xml:space="preserve"
   sodipodi:docname="followup.svg"
   inkscape:version="0.92.5 (2060ec1f9f, 2020-04-08)"
   inkscape:export-filename="/home/ehe/Dev/Georiviere/Georiviere-admin/georiviere/knowledge/static/images/followup-16.png"
   inkscape:export-xdpi="18"
   inkscape:export-ydpi="18"><metadata
   id="metadata43"><rdf:RDF><cc:Work
       rdf:about=""><dc:format>image/svg+xml</dc:format><dc:type
         rdf:resource="http://purl.org/dc/dcmitype/StillImage" /><dc:title /></cc:Work></rdf:RDF></metadata><defs
   id="defs41" /><sodipodi:namedview
   pagecolor="#ffffff"
   bordercolor="#666666"
   borderopacity="1"
   objecttolerance="10"
   gridtolerance="10"
   guidetolerance="10"
   inkscape:pageopacity="0"
   inkscape:pageshadow="2"
   inkscape:window-width="1848"
   inkscape:window-height="1009"
   id="namedview39"
   showgrid="false"
   inkscape:zoom="0.76464845"
   inkscape:cx="-73.123269"
   inkscape:cy="113.27151"
   inkscape:window-x="72"
   inkscape:window-y="34"
   inkscape:window-maximized="1"
   inkscape:current-layer="Layer_1"
   inkscape:document-rotation="0" />
<g
   id="g6"
   transform="matrix(0.8984375,0,0,0.8984375,26,26)"
   style="fill:#fd7e14;fill-opacity:1">
	<g
   id="g4"
   style="fill:#fd7e14;fill-opacity:1">
		<path
   d="M 503.983,111.165 H 281.632 l 30.242,-20.969 c 2.16,-1.497 3.449,-3.959 3.449,-6.589 V 16.567 8.017 C 315.323,3.59 311.735,0 307.306,0 H 200.418 c -4.428,0 -8.017,3.589 -8.017,8.017 v 8.551 67.041 c 0,2.733 1.393,5.278 3.695,6.752 l 32.506,20.804 H 8.017 C 3.589,111.165 0,114.754 0,119.182 V 503.984 C 0,508.411 3.588,512 8.017,512 H 256 503.983 c 4.428,0 8.017,-3.589 8.017,-8.017 V 119.182 c 0,-4.428 -3.588,-8.017 -8.017,-8.017 z m -256,329.219 H 54.514 v -48.1 h 193.47 v 48.1 z m 0,-106.889 H 54.514 v -48.1 h 193.47 v 48.1 z m 0,-106.89 H 54.514 v -48.1 h 193.47 v 48.1 z m 0,-64.133 H 46.497 c -4.428,0 -8.017,3.589 -8.017,8.017 v 64.134 c 0,4.427 3.588,8.017 8.017,8.017 h 201.486 v 26.722 H 46.497 c -4.428,0 -8.017,3.589 -8.017,8.017 v 64.134 c 0,4.427 3.588,8.017 8.017,8.017 h 201.486 v 26.722 H 46.497 c -4.428,0 -8.017,3.589 -8.017,8.017 v 64.134 c 0,4.427 3.588,8.017 8.017,8.017 h 201.486 v 39.549 H 16.033 V 127.198 h 231.95 z M 255.822,109.55 208.435,79.221 V 16.568 16.034 h 90.856 v 0.534 62.844 z m 8.195,68.955 h 39.549 v 48.1 h -39.549 z m 0,106.89 h 112.234 v 48.1 H 264.017 Z m 0,106.889 h 176.367 v 48.1 H 264.017 Z m 231.95,103.683 h -231.95 v -39.549 h 184.384 c 4.428,0 8.017,-3.589 8.017,-8.017 v -64.134 c 0,-4.427 -3.588,-8.017 -8.017,-8.017 H 264.017 v -26.722 h 120.25 c 4.428,0 8.017,-3.589 8.017,-8.017 v -64.134 c 0,-4.427 -3.588,-8.017 -8.017,-8.017 h -120.25 v -26.722 h 47.566 c 4.428,0 8.017,-3.589 8.017,-8.017 v -64.134 c 0,-4.427 -3.588,-8.017 -8.017,-8.017 h -47.566 v -35.273 h 231.95 z"
   id="path2"
   style="fill:#fd7e14;fill-opacity:1" />
	</g>
</g>
<g
   id="g8"
   transform="matrix(0.9375,0,0,0.9375,16,16)">
</g>
<g
   id="g10"
   transform="matrix(0.9375,0,0,0.9375,16,16)">
</g>
<g
   id="g12"
   transform="matrix(0.9375,0,0,0.9375,16,16)">
</g>
<g
   id="g14"
   transform="matrix(0.9375,0,0,0.9375,16,16)">
</g>
<g
   id="g16"
   transform="matrix(0.9375,0,0,0.9375,16,16)">
</g>
<g
   id="g18"
   transform="matrix(0.9375,0,0,0.9375,16,16)">
</g>
<g
   id="g20"
   transform="matrix(0.9375,0,0,0.9375,16,16)">
</g>
<g
   id="g22"
   transform="matrix(0.9375,0,0,0.9375,16,16)">
</g>
<g
   id="g24"
   transform="matrix(0.9375,0,0,0.9375,16,16)">
</g>
<g
   id="g26"
   transform="matrix(0.9375,0,0,0.9375,16,16)">
</g>
<g
   id="g28"
   transform="matrix(0.9375,0,0,0.9375,16,16)">
</g>
<g
   id="g30"
   transform="matrix(0.9375,0,0,0.9375,16,16)">
</g>
<g
   id="g32"
   transform="matrix(0.9375,0,0,0.9375,16,16)">
</g>
<g
   id="g34"
   transform="matrix(0.9375,0,0,0.9375,16,16)">
</g>
<g
   id="g36"
   transform="matrix(0.9375,0,0,0.9375,16,16)">
</g>
</svg>