<?xml version="1.0" encoding="UTF-8" standalone="no"?>
<svg
   xmlns:dc="http://purl.org/dc/elements/1.1/"
   xmlns:cc="http://creativecommons.org/ns#"
   xmlns:rdf="http://www.w3.org/1999/02/22-rdf-syntax-ns#"
   xmlns:svg="http://www.w3.org/2000/svg"
   xmlns="http://www.w3.org/2000/svg"
   xmlns:sodipodi="http://sodipodi.sourceforge.net/DTD/sodipodi-0.dtd"
   xmlns:inkscape="http://www.inkscape.org/namespaces/inkscape"
   version="1.1"
   id="Layer_1"
   x="0px"
   y="0px"
   viewBox="0 0 512 512"
   style="enable-background:new 0 0 512 512;"
   xml:space="preserve"
   sodipodi:docname="knowledge.svg"
   inkscape:version="0.92.5 (2060ec1f9f, 2020-04-08)"
   inkscape:export-filename="/home/ehe/Dev/Georiviere/Georiviere-admin/georiviere/knowledge/static/images/knowledge.png"
   inkscape:export-xdpi="9"
   inkscape:export-ydpi="9"><metadata
   id="metadata55"><rdf:RDF><cc:Work
       rdf:about=""><dc:format>image/svg+xml</dc:format><dc:type
         rdf:resource="http://purl.org/dc/dcmitype/StillImage" /><dc:title /></cc:Work></rdf:RDF></metadata><defs
   id="defs53" /><sodipodi:namedview
   pagecolor="#ffffff"
   bordercolor="#666666"
   borderopacity="1"
   objecttolerance="10"
   gridtolerance="10"
   guidetolerance="10"
   inkscape:pageopacity="0"
   inkscape:pageshadow="2"
   inkscape:window-width="1848"
   inkscape:window-height="1009"
   id="namedview51"
   showgrid="false"
   inkscape:zoom="0.76464845"
   inkscape:cx="124.14386"
   inkscape:cy="123.61367"
   inkscape:window-x="72"
   inkscape:window-y="34"
   inkscape:window-maximized="1"
   inkscape:current-layer="Layer_1" />
<g
   id="g6"
   transform="matrix(0.8984375,0,0,0.8984375,55.942676,26)"
   style="fill:#198754;fill-opacity:1">
	<g
   id="g4"
   style="fill:#198754;fill-opacity:1">
		<path
   d="m 439.965,443.599 c 0,-18.493 -15.045,-33.539 -33.54,-33.539 h -83.79 c -4.513,0 -8.17,3.658 -8.17,8.17 0,4.512 3.657,8.17 8.17,8.17 h 83.79 c 9.484,0 17.2,7.716 17.2,17.2 0,1.912 -0.331,3.777 -0.932,5.544 -4.822,-2.686 -10.367,-4.222 -16.267,-4.222 H 291.988 c 7.69,-12.877 6,-29.838 -5.078,-40.915 L 190.863,307.96 C 176.999,294.095 150.78,283.235 131.174,283.235 H 13.55 c -4.512,0 -8.17,3.658 -8.17,8.17 0,4.512 3.658,8.17 8.17,8.17 h 117.623 c 15.284,0 37.327,9.13 48.136,19.938 l 96.046,96.047 c 6.706,6.706 6.706,17.617 0,24.323 -6.704,6.706 -17.617,6.706 -24.323,0 l -78.059,-78.059 c -3.191,-3.191 -8.364,-3.191 -11.554,0 -3.191,3.191 -3.191,8.364 0,11.554 l 78.059,78.059 c 6.387,6.387 14.729,9.645 23.117,9.793 0.198,0.014 0.397,0.031 0.598,0.031 h 143.231 c 9.484,0 17.2,7.716 17.2,17.199 0,9.484 -7.716,17.2 -17.192,17.2 L 246.49,495.518 c -4.342,-0.003 -11.711,-1.924 -15.577,-4.047 L 68.335,391.074 c -0.095,-0.059 -0.191,-0.115 -0.289,-0.17 -6.294,-3.539 -16.485,-6.207 -23.707,-6.207 H 13.55 c -4.512,0 -8.17,3.658 -8.17,8.17 0,4.512 3.658,8.17 8.17,8.17 h 30.789 c 4.341,0 11.705,1.915 15.569,4.038 l 162.578,100.397 c 0.095,0.059 0.192,0.115 0.289,0.171 6.292,3.537 16.481,6.209 23.7,6.216 L 406.425,512 c 18.495,0 33.54,-15.046 33.54,-33.54 0,-6.376 -1.79,-12.341 -4.891,-17.423 3.18,-5.212 4.891,-11.211 4.891,-17.438 z"
   id="path2"
   style="fill:#198754;fill-opacity:1" />
	</g>
</g>
<g
   id="g12"
   transform="matrix(0.8984375,0,0,0.8984375,-63.508184,26)"
   style="fill:#198754;fill-opacity:1">
	<g
   id="g10"
   style="fill:#198754;fill-opacity:1">
		<path
   d="m 355.625,0 c -83.259,0 -150.994,67.737 -150.994,150.995 0,53.16 28.192,102.6 73.785,129.78 l 14.571,40.827 v 31.267 c 0,18.83 14.18,36.984 14.783,37.747 1.55,1.96 3.911,3.104 6.41,3.104 h 82.892 c 2.499,0 4.86,-1.144 6.41,-3.104 0.604,-0.764 14.783,-18.918 14.783,-37.747 v -31.268 l 14.572,-40.827 c 45.594,-27.18 73.785,-76.62 73.785,-129.78 C 506.621,67.736 438.885,0 355.625,0 Z m 37.241,377.379 h -74.495 c -2.583,-3.908 -5.973,-9.992 -7.779,-16.34 h 90.055 c -1.815,6.329 -5.204,12.424 -7.781,16.34 z m 9.057,-32.681 h -92.596 v -16.34 h 92.596 z m 20.181,-76.581 c -1.701,0.967 -2.997,2.513 -3.654,4.355 l -14.115,39.546 h -97.419 l -14.114,-39.546 c -0.658,-1.842 -1.954,-3.388 -3.654,-4.355 -42.054,-23.924 -68.177,-68.802 -68.177,-117.122 0,-74.248 60.405,-134.655 134.654,-134.655 74.249,0 134.655,60.407 134.655,134.655 0.001,48.32 -26.123,93.198 -68.176,117.122 z"
   id="path8"
   style="fill:#198754;fill-opacity:1" />
	</g>
</g>
<g
   id="g18"
   transform="matrix(0.8984375,0,0,0.8984375,-63.515537,26)"
   style="fill:#198754;fill-opacity:1">
	<g
   id="g16"
   style="fill:#198754;fill-opacity:1">
		<path
   d="m 409.558,161.147 c -15.643,-11.763 -34.292,-17.981 -53.932,-17.981 -19.605,0 -38.247,6.226 -53.914,18.005 -2.858,2.15 -3.986,5.909 -2.784,9.278 l 26.739,74.896 v 42.162 c 0,4.512 3.657,8.17 8.17,8.17 4.513,0 8.17,-3.658 8.17,-8.17 v -35.404 h 27.234 v 35.404 c 0,4.512 3.657,8.17 8.17,8.17 4.513,0 8.17,-3.658 8.17,-8.17 v -42.155 l 26.759,-74.927 c 1.204,-3.368 0.077,-7.129 -2.782,-9.278 z m -40.316,74.615 h -27.234 v -2.723 c 0,-7.509 6.109,-13.617 13.618,-13.617 7.508,0 13.616,6.108 13.616,13.617 z m 9.971,-21.159 c -5.488,-7.007 -14.017,-11.522 -23.587,-11.522 -9.568,0 -18.096,4.514 -23.585,11.518 L 316.422,170.85 c 11.727,-7.439 25.164,-11.344 39.204,-11.344 14.067,0 27.51,3.897 39.221,11.32 z"
   id="path14"
   style="fill:#198754;fill-opacity:1" />
	</g>
</g>
<g
   id="g20"
   transform="matrix(0.8984375,0,0,0.8984375,0.54640603,26)">
</g>
<g
   id="g22"
   transform="matrix(0.8984375,0,0,0.8984375,0.54640603,26)">
</g>
<g
   id="g24"
   transform="matrix(0.8984375,0,0,0.8984375,0.54640603,26)">
</g>
<g
   id="g26"
   transform="matrix(0.8984375,0,0,0.8984375,0.54640603,26)">
</g>
<g
   id="g28"
   transform="matrix(0.8984375,0,0,0.8984375,0.54640603,26)">
</g>
<g
   id="g30"
   transform="matrix(0.8984375,0,0,0.8984375,0.54640603,26)">
</g>
<g
   id="g32"
   transform="matrix(0.8984375,0,0,0.8984375,0.54640603,26)">
</g>
<g
   id="g34"
   transform="matrix(0.8984375,0,0,0.8984375,0.54640603,26)">
</g>
<g
   id="g36"
   transform="matrix(0.8984375,0,0,0.8984375,0.54640603,26)">
</g>
<g
   id="g38"
   transform="matrix(0.8984375,0,0,0.8984375,0.54640603,26)">
</g>
<g
   id="g40"
   transform="matrix(0.8984375,0,0,0.8984375,0.54640603,26)">
</g>
<g
   id="g42"
   transform="matrix(0.8984375,0,0,0.8984375,0.54640603,26)">
</g>
<g
   id="g44"
   transform="matrix(0.8984375,0,0,0.8984375,0.54640603,26)">
</g>
<g
   id="g46"
   transform="matrix(0.8984375,0,0,0.8984375,0.54640603,26)">
</g>
<g
   id="g48"
   transform="matrix(0.8984375,0,0,0.8984375,0.54640603,26)">
</g>
</svg>